<svg width="250" height="250" viewBox="0 0 250 250" fill="none" xmlns="http://www.w3.org/2000/svg">
<g clip-path="url(#clip0_34307_6079)">
<path d="M120.039 130.423V131.606C120.039 131.97 120.039 132.152 119.852 132.335H103.004C102.873 132.114 102.808 131.861 102.817 131.606V102.933C102.795 102.706 102.861 102.478 103.004 102.296C103.191 102.114 103.378 102.114 103.753 102.114H105.437C105.812 102.114 105.999 102.114 106.186 102.296C106.329 102.478 106.396 102.706 106.373 102.933V129.604H119.852C120.039 129.877 120.039 130.059 120.039 130.423Z" fill="white"/>
<path d="M133.424 118.863H135.576L138.384 119.136V116.678C138.446 116.058 138.378 115.432 138.185 114.838C137.992 114.243 137.678 113.693 137.261 113.219C136.204 112.477 134.911 112.122 133.611 112.218C132.521 112.163 131.433 112.35 130.428 112.764C129.634 113.209 129.034 113.921 128.744 114.767C128.662 115.001 128.535 115.217 128.369 115.404H126.216C125.924 115.42 125.632 115.357 125.374 115.222C125.245 115.033 125.18 114.811 125.187 114.585C125.189 114.135 125.319 113.694 125.561 113.31C125.807 112.836 126.089 112.379 126.404 111.945C127.213 111.106 128.204 110.453 129.305 110.033C130.695 109.595 132.15 109.38 133.611 109.396C136.512 109.396 138.572 109.942 139.882 111.035C141.192 112.127 141.848 113.948 141.848 116.496V125.235C141.848 127.783 141.192 129.695 139.788 130.969C138.384 132.244 136.419 132.79 133.517 132.79H132.862C129.96 132.79 127.714 132.244 126.31 131.151C124.906 130.059 124.157 128.421 124.157 126.054C124.157 123.687 124.906 121.685 126.404 120.501C127.901 119.318 130.241 118.863 133.424 118.863ZM133.704 121.594C131.458 121.594 129.867 121.958 129.024 122.686C128.557 123.113 128.195 123.639 127.968 124.222C127.741 124.806 127.654 125.433 127.714 126.054C127.65 126.613 127.728 127.179 127.94 127.702C128.152 128.226 128.492 128.691 128.931 129.058C130.188 129.821 131.665 130.172 133.143 130.059H133.517C134.197 130.103 134.88 130.013 135.523 129.794C136.167 129.575 136.758 129.232 137.261 128.785C138.1 127.685 138.499 126.326 138.384 124.962V122.049L135.764 121.776L133.704 121.594Z" fill="white"/>
<path d="M171.519 109.487C172.51 109.43 173.502 109.57 174.436 109.899C175.369 110.228 176.224 110.738 176.948 111.399C178.283 112.982 178.952 114.999 178.82 117.042V131.606C178.829 131.861 178.764 132.114 178.633 132.335H175.544C175.357 132.153 175.357 131.97 175.357 131.606V117.77C175.483 116.348 175.085 114.928 174.233 113.765C173.75 113.316 173.176 112.971 172.547 112.751C171.918 112.532 171.249 112.443 170.583 112.491C169.83 112.461 169.079 112.592 168.383 112.875C167.688 113.158 167.065 113.586 166.558 114.129C165.539 115.366 165.008 116.915 165.061 118.499V131.606C165.069 131.861 165.004 132.114 164.873 132.335H161.785C161.653 132.114 161.589 131.861 161.597 131.606V117.77C161.724 116.348 161.326 114.928 160.474 113.765C160.009 113.319 159.451 112.974 158.837 112.754C158.224 112.534 157.569 112.445 156.917 112.491C156.163 112.454 155.41 112.583 154.714 112.866C154.017 113.15 153.395 113.581 152.893 114.129C151.809 115.335 151.24 116.898 151.301 118.499V131.606C151.301 131.97 151.301 132.153 151.114 132.335H148.119C148.02 132.241 147.943 132.127 147.895 132.001C147.846 131.875 147.827 131.74 147.838 131.606V110.944C147.827 110.823 147.847 110.702 147.896 110.59C147.945 110.479 148.021 110.382 148.119 110.306L148.774 110.124H150.365L151.021 110.306C151.118 110.382 151.195 110.479 151.244 110.59C151.293 110.702 151.313 110.823 151.301 110.944V112.491C152.737 110.488 154.889 109.487 157.76 109.487C160.942 109.487 163.189 110.67 164.312 113.037C165.04 111.882 166.075 110.939 167.307 110.306C168.633 109.737 170.07 109.458 171.519 109.487Z" fill="white"/>
<path d="M193.328 118.863H195.574L198.289 119.136V116.678C198.35 116.058 198.282 115.432 198.089 114.838C197.896 114.243 197.582 113.693 197.166 113.219C196.108 112.477 194.815 112.122 193.515 112.218C192.426 112.173 191.34 112.359 190.333 112.764C189.594 113.247 189.035 113.949 188.742 114.767L188.367 115.404H186.121L185.372 115.222C185.185 115.131 185.185 114.858 185.185 114.585C185.197 114.147 185.292 113.715 185.466 113.31C185.745 112.835 186.057 112.378 186.402 111.945C187.175 111.108 188.136 110.454 189.21 110.033C190.601 109.602 192.054 109.386 193.515 109.396C196.417 109.396 198.57 109.942 199.88 111.035C201.19 112.127 201.752 113.947 201.752 116.496V125.235C201.752 127.783 201.097 129.695 199.786 130.969C198.476 132.153 196.323 132.79 193.515 132.79H192.86C189.865 132.79 187.712 132.244 186.214 131.151C184.717 130.059 184.062 128.421 184.062 126.054C184.062 123.687 184.904 121.685 186.402 120.501C187.899 119.318 190.239 118.863 193.328 118.863ZM193.609 121.594C191.362 121.594 189.771 121.958 188.929 122.686C188.461 123.113 188.1 123.639 187.873 124.222C187.645 124.806 187.558 125.433 187.618 126.054C187.566 126.621 187.658 127.192 187.886 127.716C188.115 128.24 188.473 128.701 188.929 129.058C189.678 129.695 191.082 130.059 193.141 130.059H193.515C194.182 130.113 194.853 130.027 195.482 129.807C196.112 129.587 196.686 129.238 197.166 128.785C198.004 127.685 198.404 126.326 198.289 124.962V122.049C197.428 121.864 196.549 121.772 195.668 121.776L193.609 121.594Z" fill="white"/>
<path d="M211.3 110.944V114.221C211.843 113.013 212.717 111.974 213.827 111.217C214.965 110.489 216.302 110.108 217.664 110.124H218.226L218.881 110.306C218.975 110.397 218.975 110.671 218.975 110.944V112.491C219.004 112.738 218.972 112.987 218.881 113.219L218.226 113.401H217.103C216.287 113.362 215.475 113.535 214.751 113.903C214.027 114.271 213.417 114.821 212.984 115.495C211.877 117.039 211.318 118.893 211.393 120.774V131.606C211.393 131.971 211.393 132.153 211.206 132.335H208.211C208.112 132.241 208.035 132.127 207.986 132.001C207.938 131.875 207.919 131.74 207.93 131.606V110.944C207.919 110.823 207.938 110.702 207.987 110.59C208.036 110.479 208.113 110.382 208.211 110.306C208.398 110.168 208.632 110.103 208.866 110.124H210.457L211.112 110.306C211.3 110.397 211.3 110.671 211.3 110.944Z" fill="white"/>
<path d="M226.743 102.933V120.865L236.196 110.944C236.399 110.648 236.694 110.424 237.039 110.306C237.255 110.154 237.523 110.088 237.788 110.124H239.566C240.128 110.124 240.408 110.306 240.408 110.67C240.403 110.786 240.365 110.898 240.299 110.994C240.233 111.09 240.141 111.167 240.034 111.217L233.388 118.135L241.812 131.333C241.917 131.499 241.981 131.686 242 131.879C242 132.244 241.719 132.426 241.251 132.426H238.256C238.001 132.239 237.807 131.987 237.694 131.697L230.955 120.774L226.743 125.052V131.697C226.743 132.061 226.743 132.244 226.556 132.426H223.467C223.336 132.205 223.271 131.952 223.28 131.697V102.933C223.257 102.706 223.324 102.478 223.467 102.296C223.654 102.114 223.841 102.114 224.216 102.114H225.9C226.181 102.114 226.462 102.114 226.556 102.296C226.649 102.478 226.743 102.569 226.743 102.933Z" fill="white"/>
<path d="M44.8784 155.364C37.5846 155.364 30.4545 153.261 24.3899 149.32C18.3253 145.379 13.5985 139.778 10.8072 133.225C8.01598 126.671 7.28566 119.46 8.70862 112.503C10.1316 105.546 13.6439 99.156 18.8015 94.1404C23.959 89.1247 30.5301 85.7089 37.6838 84.3251C44.8375 82.9413 52.2525 83.6515 58.9912 86.366C65.7298 89.0805 71.4894 93.6773 75.5417 99.5751C79.5939 105.473 81.7568 112.407 81.7568 119.5C81.7321 129.004 77.8388 138.113 70.9281 144.833C64.0174 151.554 54.6516 155.34 44.8784 155.364ZM44.8784 86.3668C38.1399 86.3668 31.5528 88.31 25.9499 91.9507C20.3471 95.5915 15.9802 100.766 13.4015 106.821C10.8228 112.875 10.1481 119.537 11.4627 125.964C12.7773 132.391 16.0222 138.295 20.787 142.929C25.5518 147.563 31.6226 150.718 38.2316 151.997C44.8406 153.275 51.691 152.619 57.9166 150.111C64.1421 147.604 69.4632 143.357 73.2069 137.908C76.9506 132.459 78.9488 126.053 78.9488 119.5C78.9488 110.713 75.3593 102.285 68.9698 96.0713C62.5804 89.8576 53.9145 86.3668 44.8784 86.3668Z" fill="white"/>
<path d="M67.3426 132.244L45.721 94.0129C45.5966 93.8025 45.4202 93.6257 45.2077 93.4985C44.9952 93.3714 44.7534 93.2978 44.5042 93.2846C44.2483 93.2658 43.9929 93.326 43.7743 93.4568C43.5558 93.5876 43.3854 93.7822 43.2874 94.0129L21.6658 132.244C21.5326 132.448 21.4619 132.685 21.4619 132.926C21.4619 133.168 21.5326 133.405 21.6658 133.609C21.7874 133.815 21.9658 133.984 22.1808 134.096C22.3958 134.209 22.6389 134.261 22.8826 134.246H66.1258C66.3648 134.236 66.5984 134.173 66.8091 134.063C67.0197 133.952 67.2021 133.797 67.3426 133.609C67.4379 133.393 67.487 133.161 67.487 132.926C67.487 132.692 67.4379 132.459 67.3426 132.244ZM43.1002 119.227L26.533 129.149L43.1002 99.9295V119.227ZM44.317 121.594L60.8842 131.515H27.8434L44.317 121.594ZM45.8146 119.318V99.9295L62.4754 129.331L45.8146 119.318Z" fill="white"/>
</g>
<defs>
<clipPath id="clip0_34307_6079">
<rect width="234" height="71" fill="white" transform="translate(8 84)"/>
</clipPath>
</defs>
</svg>
