<svg width="250" height="250" viewBox="0 0 250 250" fill="none" xmlns="http://www.w3.org/2000/svg">
<path d="M47.0592 129.583H16.461C16.416 131.796 16.8066 133.998 17.6115 136.068C18.2727 137.756 19.3139 139.278 20.6581 140.52C22.0022 141.762 23.615 142.693 25.3771 143.245C27.2706 143.841 29.2508 144.133 31.2401 144.109C34.1692 144.09 37.0678 143.525 39.7803 142.445C41.9974 141.693 44.0691 140.583 45.9088 139.159H46.1964V146.639C43.8353 147.608 41.4111 148.425 38.9396 149.081C36.4005 149.75 33.7814 150.084 31.1517 150.076C25.2359 150.418 19.4217 148.46 14.9787 144.628C11.0848 140.968 9.13779 135.758 9.13779 128.999C8.82461 123.194 10.8316 117.498 14.7352 113.111C16.6132 111.158 18.8988 109.622 21.4373 108.608C23.9757 107.594 26.7077 107.124 29.448 107.231C31.848 107.084 34.2525 107.439 36.5001 108.274C38.7477 109.11 40.7865 110.405 42.4795 112.073C45.7624 115.917 47.4026 120.849 47.0592 125.843V129.583ZM40.2669 124.244C40.425 121.218 39.441 118.241 37.5014 115.878C36.4252 114.808 35.1239 113.979 33.6875 113.449C32.2511 112.919 30.7139 112.701 29.1825 112.808C27.5567 112.743 25.9343 113 24.4132 113.565C22.8921 114.13 21.504 114.99 20.3328 116.094C18.1107 118.278 16.7677 121.171 16.5495 124.244H40.2669Z" fill="white"/>
<path d="M89.1622 137.343C89.1881 139.132 88.7735 140.9 87.9534 142.499C87.1332 144.098 85.9316 145.48 84.4498 146.53C80.6833 149.105 76.1407 150.369 71.5511 150.119C68.6816 150.145 65.8224 149.781 63.0553 149.038C60.825 148.449 58.6549 147.66 56.5728 146.682V138.943H56.949C59.1748 140.628 61.6522 141.969 64.2945 142.92C66.7717 143.862 69.4022 144.36 72.0602 144.39C74.5566 144.519 77.0439 144.005 79.2729 142.899C80.1084 142.43 80.7933 141.742 81.2506 140.913C81.7079 140.085 81.9195 139.148 81.8614 138.208C81.9111 137.532 81.8103 136.853 81.5659 136.219C81.3214 135.584 80.9392 135.009 80.4454 134.533C78.8287 133.407 76.9648 132.667 75.0028 132.372C74.0145 132.155 72.7165 131.896 71.1087 131.594C69.501 131.291 68.0261 130.974 66.6839 130.642C63.7112 130.07 60.9962 128.603 58.9182 126.449C57.3925 124.508 56.6098 122.107 56.7057 119.661C56.6956 118.019 57.0583 116.395 57.7677 114.906C58.5229 113.352 59.6271 111.985 60.9979 110.906C62.5795 109.682 64.3908 108.772 66.3299 108.226C68.6822 107.532 71.1298 107.197 73.5867 107.232C76.1431 107.236 78.6902 107.533 81.1755 108.118C83.3865 108.59 85.5326 109.316 87.5694 110.28V117.629H87.1932C85.1976 116.211 82.9982 115.089 80.6663 114.3C78.2588 113.423 75.7133 112.962 73.144 112.938C70.8888 112.867 68.6539 113.374 66.6615 114.409C65.8487 114.814 65.1688 115.434 64.6994 116.198C64.2299 116.962 63.9899 117.841 64.0065 118.732C63.954 119.443 64.0705 120.156 64.3468 120.816C64.6232 121.476 65.0519 122.065 65.5996 122.536C67.1006 123.62 68.8324 124.359 70.6661 124.698C71.9493 124.986 73.4243 125.282 75.0909 125.584C76.6839 125.865 78.0335 126.146 79.0955 126.384C81.9262 126.903 84.5405 128.218 86.6178 130.167C88.4323 132.125 89.379 134.705 89.2508 137.344" fill="white"/>
<path d="M133.124 149.211H126.066V144.715C123.958 146.38 121.656 147.794 119.208 148.93C116.949 149.924 114.495 150.425 112.017 150.4C110.118 150.501 108.218 150.202 106.446 149.524C104.675 148.845 103.074 147.802 101.752 146.466C99.0842 143.207 97.7727 139.085 98.0788 134.922V108.399H105.137V131.702C105.122 133.486 105.226 135.27 105.446 137.041C105.593 138.374 106.023 139.662 106.707 140.824C107.315 141.848 108.225 142.669 109.318 143.18C110.812 143.742 112.409 143.992 114.008 143.915C116.076 143.863 118.11 143.392 119.982 142.532C122.141 141.606 124.171 140.415 126.022 138.987V108.399H133.08V149.211" fill="white"/>
<path d="M169.939 115.878H169.563C168.555 115.658 167.536 115.492 166.509 115.38C165.348 115.272 164.181 115.222 163.014 115.229C160.873 115.221 158.756 115.679 156.819 116.57C154.706 117.541 152.723 118.761 150.912 120.201V149.211H143.876V108.398H150.934V114.43C153.184 112.572 155.667 111.003 158.323 109.76C160.377 108.865 162.601 108.402 164.85 108.398C166.074 108.398 166.959 108.398 167.505 108.398L169.961 108.744V115.878" fill="white"/>
<path d="M213.856 129.583H183.369C183.324 131.796 183.714 133.998 184.519 136.068C185.168 137.757 186.197 139.283 187.529 140.533C188.862 141.782 190.464 142.724 192.219 143.288C194.112 143.884 196.092 144.176 198.082 144.153C201.011 144.133 203.909 143.568 206.622 142.488C208.838 141.735 210.91 140.624 212.75 139.202H213.126V146.682C210.765 147.652 208.341 148.468 205.87 149.124C203.331 149.793 200.712 150.127 198.082 150.119C195.137 150.288 192.187 149.889 189.4 148.943C186.614 147.997 184.045 146.523 181.842 144.606C177.948 140.946 176.002 135.736 176.002 128.978C175.688 123.173 177.695 117.476 181.599 113.089C183.472 111.149 185.747 109.622 188.273 108.612C190.8 107.601 193.518 107.131 196.245 107.231C198.645 107.084 201.05 107.439 203.297 108.274C205.545 109.11 207.584 110.405 209.277 112.073C212.56 115.917 214.2 120.849 213.857 125.843L213.856 129.583ZM207.064 124.244C207.222 121.218 206.238 118.241 204.299 115.878C203.223 114.808 201.921 113.979 200.485 113.449C199.048 112.919 197.511 112.701 195.98 112.808C194.354 112.742 192.731 112.999 191.21 113.563C189.689 114.128 188.301 114.989 187.13 116.094C184.913 118.288 183.578 121.189 183.369 124.265L207.064 124.244Z" fill="white"/>
<path d="M240.893 108.399C240.91 109.557 240.686 110.706 240.233 111.777C239.78 112.847 239.109 113.816 238.26 114.624C237.422 115.443 236.427 116.093 235.331 116.536C234.236 116.979 233.062 117.208 231.877 117.208C230.691 117.208 229.518 116.979 228.423 116.536C227.327 116.093 226.332 115.443 225.494 114.624C224.64 113.819 223.964 112.851 223.507 111.78C223.05 110.709 222.823 109.559 222.839 108.399C222.81 107.245 223.023 106.098 223.465 105.027C223.906 103.956 224.566 102.985 225.406 102.173C226.242 101.352 227.237 100.7 228.332 100.255C229.428 99.8099 230.602 99.5808 231.788 99.5808C232.975 99.5808 234.149 99.8099 235.245 100.255C236.34 100.7 237.335 101.352 238.171 102.173C239.038 102.973 239.726 103.939 240.194 105.01C240.662 106.08 240.9 107.234 240.893 108.399ZM239.676 108.399C239.701 107.395 239.518 106.397 239.138 105.465C238.757 104.532 238.188 103.684 237.463 102.973C236.742 102.254 235.882 101.683 234.932 101.293C233.982 100.903 232.962 100.702 231.932 100.702C230.902 100.702 229.882 100.903 228.932 101.293C227.983 101.683 227.122 102.254 226.401 102.973C225.678 103.685 225.109 104.533 224.729 105.465C224.348 106.398 224.165 107.395 224.189 108.399C224.165 109.402 224.348 110.4 224.729 111.332C225.109 112.264 225.678 113.112 226.401 113.824C227.12 114.546 227.981 115.119 228.931 115.511C229.881 115.903 230.901 116.105 231.932 116.105C232.963 116.105 233.984 115.903 234.934 115.511C235.884 115.119 236.744 114.546 237.463 113.824C238.172 113.106 238.725 112.255 239.09 111.323C239.455 110.39 239.624 109.396 239.587 108.399H239.676ZM237.685 112.873H235.339L231.822 109.263H230.14V112.895H228.414V103.556H231.667C232.205 103.525 232.744 103.525 233.282 103.556C233.723 103.61 234.15 103.742 234.543 103.945C234.939 104.136 235.275 104.427 235.516 104.788C235.732 105.164 235.839 105.59 235.826 106.021C235.847 106.622 235.633 107.209 235.229 107.663C234.785 108.133 234.231 108.489 233.614 108.701L237.685 112.873ZM234.012 106.215C234.014 105.99 233.961 105.768 233.857 105.567C233.754 105.36 233.582 105.192 233.371 105.091C233.159 104.971 232.927 104.891 232.685 104.853H231.778H230.229V107.966H231.557C231.924 108.002 232.295 108.002 232.663 107.966C232.943 107.917 233.208 107.807 233.437 107.642C233.64 107.498 233.801 107.304 233.902 107.08C233.971 106.804 233.98 106.516 233.927 106.237L234.012 106.215Z" fill="white"/>
</svg>
