<svg width="250" height="250" viewBox="0 0 250 250" fill="none" xmlns="http://www.w3.org/2000/svg">
<g clip-path="url(#clip0_34307_6104)">
<path d="M235.823 148.515H236.503C237.275 148.515 237.93 148.24 237.93 147.525C237.93 147.017 237.552 146.507 236.503 146.507C236.196 146.507 235.985 146.534 235.823 146.553V148.515ZM235.823 151.719H234.886V145.935C235.379 145.862 235.845 145.794 236.546 145.794C237.437 145.794 238.021 145.978 238.374 146.234C238.725 146.485 238.911 146.88 238.911 147.43C238.911 148.191 238.396 148.656 237.763 148.836V148.885C238.278 148.974 238.629 149.436 238.75 150.289C238.887 151.19 239.029 151.536 239.122 151.719H238.141C237.999 151.536 237.859 151.004 237.741 150.245C237.602 149.506 237.226 149.233 236.478 149.233H235.823V151.719ZM236.804 144.318C234.488 144.318 232.592 146.278 232.592 148.701C232.592 151.168 234.488 153.104 236.829 153.104C239.169 153.125 241.044 151.168 241.044 148.723C241.044 146.278 239.169 144.318 236.829 144.318H236.804ZM236.829 143.511C239.709 143.511 242 145.816 242 148.701C242 151.627 239.709 153.908 236.804 153.908C233.927 153.908 231.586 151.627 231.586 148.701C231.586 145.816 233.927 143.511 236.804 143.511H236.829ZM195.119 94.8643H194.467C195.985 93.1638 197.254 91.1395 198.211 88.883H200.359C199.022 91.207 197.238 93.234 195.119 94.8643ZM193.13 96.222L193.124 96.2247C193.124 96.2247 193.124 96.222 193.13 96.222ZM172.033 96.222L172.036 96.2247C172.036 96.222 172.036 96.222 172.033 96.222ZM164.801 88.883H166.947C167.904 91.1395 169.178 93.1638 170.699 94.8643H170.044C167.925 93.234 166.136 91.207 164.801 88.883ZM170.036 63.1493H170.702C169.57 64.4125 168.559 65.8593 167.723 67.4707L167.703 67.468L167.41 68.078L167.114 68.6907L167.136 68.6988C167.068 68.8418 167.002 68.9849 166.942 69.1306H164.801C165.16 68.5098 165.541 67.8998 165.961 67.3195C167.125 65.7243 168.498 64.3261 170.036 63.1493ZM193.13 61.7943L193.124 61.7916C193.124 61.7916 193.13 61.7916 193.13 61.7943ZM200.359 69.1306H198.211C197.254 66.8714 195.985 64.8498 194.467 63.1493H195.119C197.238 64.7823 199.022 66.8121 200.359 69.1306ZM200.176 79.6843H202.979C202.886 82.4752 202.214 85.1339 201.072 87.5307H198.742C199.603 85.1123 200.102 82.459 200.176 79.6843ZM191.962 87.5307C192.442 85.1231 192.719 82.4752 192.76 79.6843H198.794C198.72 82.4752 198.189 85.1339 197.287 87.5307H191.962ZM188.759 96.222H191.02C189.803 97.1397 188.49 97.8631 187.09 98.3651C187.676 97.7632 188.235 97.0425 188.759 96.222ZM176.405 96.222C176.92 97.0425 177.479 97.7632 178.071 98.3651C176.679 97.8631 175.355 97.1397 174.144 96.222H176.405ZM166.361 79.6843H172.403C172.442 82.4752 172.724 85.1231 173.204 87.5307H167.876C166.969 85.1339 166.437 82.4752 166.361 79.6843ZM164.985 78.3293H162.19C162.275 75.587 162.927 72.9337 164.092 70.4883H166.415C165.541 72.9553 165.062 75.6167 164.985 78.3293ZM173.215 70.4883C172.724 72.9526 172.445 75.6167 172.403 78.3293H166.369C166.443 75.6032 166.955 72.9391 167.876 70.4883H173.215ZM188.759 61.7943C188.235 60.9711 187.676 60.2504 187.09 59.6485C188.49 60.1533 189.803 60.8766 191.02 61.7943H188.759ZM183.267 78.3293V70.4883H190.532C191.039 72.8959 191.332 75.5519 191.379 78.3293H183.267ZM183.267 87.5307V79.6843H191.379C191.332 82.459 191.039 85.1231 190.532 87.5307H183.267ZM183.267 94.8643V88.883H190.214C189.63 91.1935 188.855 93.2259 187.939 94.8643H183.267ZM183.267 96.222H187.087C185.95 97.8145 184.648 98.8347 183.267 99.0912V96.222ZM181.891 96.222V99.0912C180.513 98.8347 179.211 97.8145 178.071 96.222H181.891ZM181.891 88.883V94.8643H177.221C176.309 93.2259 175.528 91.1935 174.941 88.883H181.891ZM181.891 79.6843V87.5307H174.629C174.124 85.1231 173.823 82.459 173.785 79.6843H181.891ZM181.891 70.4883V78.3293H173.785C173.823 75.6113 174.108 72.9445 174.62 70.4883H181.891ZM187.939 63.1493C188.855 64.7904 189.63 66.8256 190.214 69.1306H183.267V63.1493H187.939ZM183.267 61.7943V58.9252C184.648 59.1789 185.95 60.1964 187.087 61.7943H183.267ZM181.891 58.9278V61.7943H178.06C179.23 60.1803 180.537 59.1789 181.891 58.9278ZM176.41 61.7943H174.185C175.388 60.8874 176.684 60.1776 178.043 59.6782C177.465 60.2693 176.92 60.9792 176.41 61.7943ZM175.053 68.6475C175.623 66.499 176.363 64.6554 177.202 63.1493H181.891V69.1306H174.927C174.971 68.9687 175.007 68.8013 175.053 68.6475ZM198.794 78.3293H192.76C192.719 75.5357 192.442 72.8905 191.962 70.4883H197.287C198.189 72.8824 198.72 75.5357 198.794 78.3293ZM202.979 78.3293H200.176C200.102 75.5519 199.603 72.904 198.742 70.4883H201.072C202.214 72.8824 202.886 75.5357 202.979 78.3293ZM196.72 69.1306H191.661C191.121 66.866 190.397 64.8471 189.526 63.1493H192.576C194.256 64.7823 195.67 66.8148 196.72 69.1306ZM168.654 68.6556C169.693 66.5044 171.036 64.6554 172.598 63.1493H175.651C174.982 64.4503 174.398 65.9591 173.905 67.6515L173.9 67.6461L173.719 68.2993L173.546 68.9579H173.56C173.546 69.0146 173.53 69.0739 173.513 69.1306H168.438C168.512 68.9741 168.578 68.8148 168.654 68.6556ZM162.184 79.6843H164.982C165.059 82.459 165.558 85.1123 166.415 87.5307H164.092C162.949 85.1339 162.272 82.4752 162.184 79.6843ZM168.435 88.883H173.494C174.039 91.1476 174.766 93.1692 175.64 94.8643H172.576C170.907 93.2313 169.496 91.207 168.435 88.883ZM192.576 94.8643H189.526C190.397 93.1692 191.121 91.1476 191.661 88.883H196.72C195.67 91.207 194.256 93.2313 192.576 94.8643ZM204.374 79.0068C204.374 67.8134 195.632 58.5986 184.514 57.6323C183.878 57.5432 183.237 57.5 182.579 57.5C181.965 57.5 181.359 57.5486 180.756 57.6269C174.653 58.1343 169.002 61.1708 165.259 65.9888L165.245 65.9753L164.842 66.526L164.445 67.0793L164.461 67.0955C162.066 70.6287 160.786 74.726 160.786 79.0068C160.786 90.2002 169.529 99.4178 180.644 100.384C181.28 100.47 181.929 100.516 182.579 100.516C183.237 100.516 183.878 100.47 184.514 100.384C195.632 99.4178 204.374 90.2002 204.374 79.0068ZM229.042 144.407H8.71554V154.092H229.042V144.407ZM124.692 62.5253L132.349 77.9887L140.25 62.5253H150.233L136.569 86.3588V99.3713H126.772V85.8972L113.445 62.5253H124.692ZM77.12 62.5253H87.8298L95.78 89.2171L104.166 62.5253H113.812L101.061 99.3713H89.4796L77.12 62.5253ZM68.7593 85.1843L64.2485 69.7209H64.1032L59.2608 85.1843H68.7593ZM58.7237 62.525H70.5516L84.3636 99.371H73.4099L70.9846 91.97H56.978L54.602 99.371H44.9116L58.7237 62.525ZM8.71582 62.5253H22.0949L33.9201 89.981L33.8269 62.5253H42.306V99.3713H29.2201L17.1483 70.7415L17.2469 99.3713H8.71582V62.5253ZM203.505 103.281H213.344V132.88H229.05V140.13H203.505V103.281ZM186.878 125.94L182.37 110.482H182.222L177.377 125.94H186.878ZM176.843 103.28H188.671L202.485 140.132H191.529L189.106 132.728H175.1L172.727 140.132H163.028L176.843 103.28ZM141.655 119.103H145.292C147.424 119.103 148.49 119.103 149.312 118.798C151.447 118.083 151.883 115.786 151.883 114.612C151.883 110.072 148.101 110.072 145.292 110.072H141.655V119.103ZM131.913 103.281H148.101C154.404 103.281 156.78 103.691 158.865 105.934C159.929 107.059 161.285 109.103 161.285 113.081C161.285 117.114 159.737 118.847 158.087 119.918C155.859 121.4 153.724 121.654 152.754 121.807V122.01C159.542 122.218 159.929 125.381 160.704 131.041C161.044 133.546 161.529 137.525 162.354 140.132H151.833C151.252 137.884 151.006 135.076 150.671 131.811C150.233 127.37 150.09 125.735 145.728 125.735H141.655V140.132H131.913V103.281ZM102.682 103.384H128.955V110.428H112.282V118.08H127.985V125.125H112.282V132.982H129.345V140.13H102.682V103.384ZM75.4927 133.035H79.661C86.1066 132.981 90.2256 130.077 90.2256 121.502C90.2256 110.324 82.2781 110.324 79.3212 110.324L75.4927 110.27V133.035ZM65.5557 103.282H80.3406C84.5062 103.282 90.0337 103.739 93.6676 106.343C98.8553 110.071 100.258 116.141 100.258 121.604C100.258 129.769 97.7893 135.791 90.7134 138.701C87.1233 140.131 82.8591 140.131 80.4365 140.131H65.5557V103.282ZM35.9891 103.384H62.2594V110.428H45.5863V118.08H61.2893V125.125H45.5863V132.982H62.6458V140.13H35.9891V103.384ZM8.71691 103.384H33.4827V110.48H18.3634V119.052H32.4194V126.143H18.3634V140.13H8.71691V103.384ZM210.399 169.349H214.844V172.642L214.927 172.729C216.327 170.259 218.758 168.739 221.556 168.739C226.171 168.739 229.098 171.341 229.098 176.373V191.763H224.398V177.674C224.318 174.162 223 172.642 220.241 172.642C217.111 172.642 215.094 175.242 215.094 178.54V191.763H210.399V169.349ZM203.233 180.536C203.233 176.676 201.38 172.644 197.179 172.644C192.98 172.644 191.128 176.676 191.128 180.536C191.128 184.439 192.98 188.469 197.179 188.469C201.38 188.469 203.233 184.439 203.233 180.536ZM186.433 180.536C186.433 173.685 190.347 168.741 197.179 168.741C204.016 168.741 207.927 173.685 207.927 180.536C207.927 187.432 204.016 192.369 197.179 192.369C190.347 192.369 186.433 187.432 186.433 180.536ZM179.061 169.35H183.753V191.764H179.061V169.35ZM179.061 160.807H183.753V165.49H179.061V160.807ZM156.33 169.349H160.777V172.642L160.86 172.729C162.26 170.259 164.691 168.739 167.492 168.739C172.101 168.739 175.025 171.341 175.025 176.373V191.763H170.331V177.674C170.249 174.162 168.93 172.642 166.171 172.642C163.041 172.642 161.021 175.242 161.021 178.54V191.763H156.33V169.349ZM128.369 160.807H133.516V178.845C133.516 183.005 133.762 187.817 140.435 187.817C147.108 187.817 147.352 183.005 147.352 178.845V160.807H152.502V180.621C152.502 188.554 147.681 192.498 140.435 192.498C133.187 192.498 128.369 188.554 128.369 180.621V160.807ZM103.826 169.349H107.369V162.626H112.061V169.349H116.303V173.034H112.061V184.999C112.061 187.037 112.225 188.076 114.327 188.076C114.985 188.076 115.645 188.076 116.303 187.903V191.717C115.276 191.806 114.283 191.979 113.256 191.979C108.359 191.979 107.449 189.982 107.369 186.257V173.034H103.826V169.349ZM97.1949 169.35H101.887V191.764H97.1949V169.35ZM97.1949 160.807H101.887V165.49H97.1949V160.807ZM82.4949 188.469C86.6933 188.469 88.4664 184.439 88.4664 180.536C88.4664 175.591 86.2001 172.644 82.5771 172.644C78.1704 172.644 76.6029 176.763 76.6029 180.795C76.6029 184.655 78.4171 188.469 82.4949 188.469ZM92.9937 191.762H88.5486V188.728H88.4664C87.2305 191.287 84.5558 192.369 81.8783 192.369C75.1641 192.369 71.9112 187.125 71.9112 180.404C71.9112 172.296 76.4823 168.741 81.1356 168.741C83.8103 168.741 86.7756 169.78 88.217 172.25H88.302V160.808H92.9937V191.762ZM65.6933 178.581C65.5288 175.461 63.5091 172.643 60.3384 172.643C57.0854 172.643 54.8629 175.24 54.7395 178.581H65.6933ZM54.7395 181.837C54.7395 185.345 56.551 188.468 60.4617 188.468C63.1802 188.468 64.8273 187.213 65.6522 184.738H70.0972C69.0695 189.64 65.1178 192.371 60.4617 192.371C53.7913 192.371 50.0451 187.472 50.0451 180.581C50.0451 174.203 53.9969 168.74 60.3384 168.74C67.0498 168.74 71.1688 175.116 70.3877 181.837H54.7395ZM37.6077 169.349H42.0116V173.684H42.0993C42.6337 171.298 45.4318 168.739 48.3175 168.739C49.3863 168.739 49.674 168.828 50.0851 168.872V173.644C49.4246 173.557 48.7258 173.422 48.0654 173.422C44.8563 173.422 42.2994 176.157 42.2994 181.096V191.763H37.6077V169.349ZM29.4142 170.65C28.5509 167.093 26.3667 164.496 22.0834 164.496C15.7857 164.496 13.1466 170.345 13.1466 176.284C13.1466 182.224 15.7857 188.076 22.0834 188.076C26.6545 188.076 29.1675 184.481 29.5786 179.971H34.6019C34.1908 187.388 29.2086 192.5 22.0834 192.5C13.2727 192.5 8 185.131 8 176.284C8 167.438 13.2727 160.07 22.0834 160.07C28.7153 160.116 33.9442 163.975 34.5608 170.65H29.4142Z" fill="white"/>
</g>
<defs>
<clipPath id="clip0_34307_6104">
<rect width="234" height="135" fill="white" transform="translate(8 57.5)"/>
</clipPath>
</defs>
</svg>
