<svg width="250" height="250" viewBox="0 0 250 250" fill="none" xmlns="http://www.w3.org/2000/svg">
<path fill-rule="evenodd" clip-rule="evenodd" d="M8 100.5H242V149.5H8V100.5ZM64.2248 123.005V130.985H66.0123H68.1248V123.484V114.546H66.1748H64.2248V123.005ZM101.275 118.536H89.7375V130.985H93.8V120.451H99.975C100.625 120.451 101.275 120.93 101.275 121.728V130.985H105.337V122.366C105.175 120.292 103.387 118.536 101.275 118.536ZM142.875 130.985H134.588C132.638 130.985 130.688 129.708 130.688 127.314V122.366C130.688 119.972 132.638 118.695 134.588 118.695H142.875C144.825 118.695 146.775 119.972 146.775 122.366V127.314C146.775 129.708 144.825 130.985 142.875 130.985ZM136.213 120.451C135.4 120.451 134.75 121.09 134.75 121.888V127.634C134.75 128.432 135.4 129.07 136.213 129.07H141.088C141.9 129.07 142.55 128.432 142.55 127.634V121.888C142.55 121.09 141.9 120.451 141.088 120.451H136.213ZM209.988 125.239C208.363 125.239 207.063 126.516 207.063 128.112C207.063 129.708 208.363 130.985 209.988 130.985C211.613 130.985 212.913 129.708 212.913 128.112C212.913 126.516 211.613 125.239 209.988 125.239ZM209.988 130.666C208.525 130.666 207.388 129.549 207.388 128.112C207.388 126.676 208.525 125.559 209.988 125.559C211.45 125.559 212.588 126.676 212.588 128.112C212.425 129.549 211.288 130.666 209.988 130.666ZM211.125 126.676C210.8 126.516 210.637 126.516 210.312 126.516H208.85V129.868H209.337V128.432H210.15L211.125 129.868H211.612L210.637 128.432C211.287 128.432 211.612 128.112 211.612 127.474C211.45 127.155 211.287 126.835 211.125 126.676ZM210.15 127.953H209.337V126.835H210.312C210.8 126.835 211.125 126.835 211.125 127.314C211.125 127.953 210.637 127.953 210.15 127.953ZM149.537 118.536H161.075C163.187 118.536 164.812 120.292 165.137 122.366V130.985H161.075V121.728C161.075 120.93 160.425 120.451 159.775 120.451H153.6V130.985H149.537V118.536ZM123.375 121.728V130.826H119.475V122.207C119.475 120.132 121.262 118.536 123.375 118.536H129.062V120.451H124.675C124.025 120.451 123.375 121.09 123.375 121.728ZM49.1125 130.985H57.2375C59.35 130.985 61.1375 129.23 61.1375 127.314V122.366C61.1375 120.292 59.35 118.695 57.2375 118.695H45.05V135.614H49.1125V130.985ZM48.95 120.451H55.6125C56.425 120.451 57.075 121.09 57.075 121.888V127.634C57.075 128.432 56.425 129.07 55.6125 129.07H48.95V120.451ZM112 130.985C109.725 130.985 108.1 129.389 108.1 127.314V114.705H112.162V118.695H116.875V120.611H112.162V127.953C112.162 128.591 112.65 129.07 113.3 129.07H116.875V130.985H112ZM171.962 124.601V118.536H169.85H167.9V124.761V130.985H170.337H171.962V124.601ZM167.9 116.94V115.982V115.184H170.012H171.962V115.982V116.94H169.85H167.9ZM178.787 122.366C178.787 120.77 179.762 120.451 180.737 120.451H188.05V118.536H178.625C176.512 118.536 174.725 120.132 174.725 122.207V127.155C174.725 129.23 176.512 130.826 178.625 130.826H188.05V128.91H180.737C179.6 128.91 178.787 128.751 178.787 127.155V122.366ZM196.338 123.643H201.538C203.488 123.803 205.275 124.92 205.275 127.314C205.275 130.028 203.325 130.985 201.538 130.985H190.325V129.07H199.75C200.4 128.91 201.213 128.272 201.213 127.314C201.213 126.197 200.563 125.559 199.75 125.559H194.225C192.113 125.559 190.488 124.122 190.488 122.047C190.488 119.972 192.113 118.536 194.225 118.536H204.3V120.451H196.338C195.038 120.451 194.55 120.93 194.55 122.047C194.55 123.005 194.875 123.643 196.338 123.643ZM74.95 130.985H86.8125V122.366C86.8125 120.292 85.1875 118.536 82.9125 118.536H72.675V120.451H81.45C82.425 120.451 82.75 120.77 82.75 121.409V122.526H74.95C72.675 122.526 71.05 124.441 71.05 126.037V127.155C71.05 130.507 73.975 130.985 74.95 130.985ZM82.75 124.601V128.91H76.25C75.4375 128.91 74.95 128.432 74.95 127.793V125.878C74.95 125.239 75.6 124.601 76.25 124.601H82.75Z" fill="white"/>
</svg>
