<svg width="250" height="250" viewBox="0 0 250 250" fill="none" xmlns="http://www.w3.org/2000/svg">
<g clip-path="url(#clip0_34307_6165)">
<mask id="mask0_34307_6165" style="mask-type:luminance" maskUnits="userSpaceOnUse" x="-3" y="30" width="373" height="151">
<path d="M-2.88916 181H369.529V30.5586H-2.88916V181Z" fill="white"/>
</mask>
<g mask="url(#mask0_34307_6165)">
<path d="M112.701 119.648C112.701 116.716 111.16 115.136 107.843 115.136H90.4264V124.121H107.048C110.926 124.121 112.701 122.447 112.701 119.648ZM107.422 109.359C110.367 109.359 111.722 107.311 111.722 105.122C111.722 102.701 110.18 100.748 107.048 100.748H90.4264V109.359H107.422ZM114.568 111.781C117.651 113.367 119.429 116.299 119.429 119.648C119.429 125.425 115.222 129.895 107.192 129.895H83.981V94.974H107.048C113.496 94.974 118.167 98.8832 118.167 104.798C118.167 107.826 116.856 110.015 114.568 111.781Z" fill="white"/>
<path d="M149.361 111.226C153.427 111.226 155.718 109.132 155.718 106.101C155.718 102.798 153.71 100.747 150.068 100.747H134.045V111.226H149.361ZM144.507 117.046H134.045V129.894H127.553V94.9734H150.068C157.535 94.9734 162.16 99.538 162.16 106.101C162.16 112.34 157.631 116.066 152.119 116.856L162.535 129.894H154.406L144.507 117.046Z" fill="white"/>
<path d="M187.38 124.027C194.993 124.027 198.871 119.043 198.871 112.385C198.871 105.867 194.993 100.841 187.38 100.841H175.518V124.027H187.38ZM187.38 94.972C198.404 94.972 205.596 101.909 205.596 112.385C205.596 122.071 197.934 129.896 188.356 129.896H169.023V94.972H187.38Z" fill="white"/>
<path fill-rule="evenodd" clip-rule="evenodd" d="M8 84H65.5619V113.265H8V84Z" fill="#A3AAAF"/>
<path fill-rule="evenodd" clip-rule="evenodd" d="M8 112.692H65.5619V141.38H8V112.692Z" fill="white"/>
<path fill-rule="evenodd" clip-rule="evenodd" d="M18.0376 110.948H55.4809V114.435H18.0376V110.948Z" fill="white"/>
<path d="M18.6221 175.258V175.563C18.6221 177.179 18.1488 178.489 17.1989 179.489C16.2523 180.498 14.9869 180.999 13.4125 180.999C11.9893 180.999 10.7995 180.56 9.83972 179.685C8.71891 178.673 8.16016 177.346 8.16016 175.707C8.16016 174.092 8.71891 172.775 9.83972 171.759C10.8159 170.868 12.0386 170.419 13.5012 170.419C15.2695 170.419 16.7354 171.189 17.8957 172.732L16.4232 173.633C15.6081 172.673 14.6023 172.188 13.4059 172.188C12.3475 172.188 11.4733 172.522 10.7896 173.187C10.1059 173.859 9.76412 174.701 9.76412 175.714C9.76412 176.759 10.0961 177.614 10.7666 178.27C11.4338 178.925 12.3114 179.259 13.4059 179.259C15.046 179.259 16.1372 178.519 16.673 177.028H13.0706V175.258H18.6221Z" fill="white"/>
<path d="M27.0855 175.291C28.0288 175.291 28.4988 174.838 28.4988 173.947C28.4988 173 27.9959 172.522 26.9934 172.522H22.4248V175.291H27.0855ZM30.2802 180.717H28.4889L26.3985 177.06H22.4248V180.717H20.8701V170.752H27.3221C28.1701 170.752 28.8472 171.037 29.3468 171.607C29.8497 172.181 30.1028 172.948 30.1028 173.911C30.1028 175.563 29.4421 176.572 28.1208 176.939L30.2802 180.717Z" fill="white"/>
<path d="M40.8948 175.715C40.8948 174.686 40.5563 173.847 39.8792 173.182C39.2021 172.523 38.3278 172.189 37.2596 172.189C36.1848 172.189 35.304 172.523 34.6203 173.188C33.9399 173.86 33.5981 174.702 33.5981 175.715C33.5981 176.773 33.9301 177.625 34.6006 178.277C35.2678 178.932 36.1552 179.26 37.2596 179.26C38.3541 179.26 39.2317 178.932 39.8989 178.277C40.5596 177.625 40.8948 176.773 40.8948 175.715ZM42.5119 175.708C42.5119 177.34 41.9532 178.66 40.8357 179.686C39.8825 180.561 38.6894 181 37.2596 181C35.8331 181 34.6334 180.561 33.6737 179.686C32.5529 178.673 31.9941 177.346 31.9941 175.708C31.9941 174.092 32.5562 172.772 33.6836 171.756C34.6729 170.868 35.866 170.419 37.2596 170.419C38.6466 170.419 39.8365 170.868 40.8225 171.756C41.9499 172.782 42.5119 174.099 42.5119 175.708Z" fill="white"/>
<path d="M53.9684 177.436C53.9684 178.484 53.5477 179.34 52.7096 180.002C51.8682 180.667 50.7408 180.998 49.3275 180.998C47.9076 180.998 46.7736 180.667 45.9322 180.002C45.0941 179.34 44.6733 178.484 44.6733 177.436V170.751H46.2247V177.052C46.2247 178.524 47.2601 179.258 49.3275 179.258C51.385 179.258 52.4138 178.524 52.4138 177.052V170.751H53.9684V177.436Z" fill="white"/>
<path d="M62.8218 175.291C63.7651 175.291 64.2351 174.838 64.2351 173.947C64.2351 173 63.7355 172.522 62.7331 172.522H58.1611V175.291H62.8218ZM63.0617 170.752C63.9097 170.752 64.5835 171.037 65.0831 171.607C65.586 172.181 65.8391 172.948 65.8391 173.914C65.8391 174.917 65.5761 175.694 65.0535 176.238C64.5277 176.791 63.7783 177.06 62.7988 177.06H58.1611V180.717H56.6064V170.752H63.0617Z" fill="white"/>
<path d="M76.0742 180.715H67.4727V170.751H75.7751V172.523H69.024V174.66H73.7209V176.429H69.024V178.943H76.0742V180.715Z" fill="white"/>
<path d="M89.2265 173.213C88.1846 172.538 87.0506 172.204 85.8312 172.204C84.0498 172.204 83.159 172.597 83.159 173.384C83.159 173.846 83.4943 174.151 84.1615 174.288C85.072 174.39 85.9857 174.491 86.8929 174.596C88.2043 174.76 89.1377 175.048 89.6932 175.471C90.3078 175.933 90.6168 176.638 90.6168 177.588C90.6168 178.653 90.2322 179.482 89.4664 180.062C88.7006 180.645 87.5864 180.937 86.1369 180.937C84.0826 180.937 82.4392 180.35 81.21 179.19L82.0547 177.811C83.1525 178.764 84.5033 179.246 86.104 179.246C87.0046 179.246 87.7014 179.102 88.1944 178.81C88.6874 178.528 88.934 178.151 88.934 177.673C88.934 177.149 88.6316 176.775 88.0235 176.559C87.6883 176.441 87.1624 176.362 86.4524 176.316C85.3448 176.251 84.6644 176.205 84.4113 176.172C83.4253 176.051 82.6956 175.789 82.2289 175.376C81.7621 174.97 81.5255 174.373 81.5255 173.587C81.5255 172.637 81.9002 171.883 82.6529 171.326C83.4023 170.772 84.454 170.497 85.8049 170.497C87.6094 170.497 89.0687 170.979 90.1862 171.952L89.2265 173.213Z" fill="white"/>
<path d="M100.971 175.715C100.971 174.686 100.635 173.847 99.9583 173.182C99.2779 172.523 98.4069 172.189 97.3354 172.189C96.2606 172.189 95.3798 172.523 94.6961 173.188C94.0157 173.86 93.6739 174.702 93.6739 175.715C93.6739 176.773 94.0092 177.625 94.6764 178.277C95.3469 178.932 96.2311 179.26 97.3354 179.26C98.4332 179.26 99.3108 178.932 99.978 178.277C100.642 177.625 100.971 176.773 100.971 175.715ZM102.588 175.708C102.588 177.34 102.032 178.66 100.915 179.686C99.9616 180.561 98.7685 181 97.3387 181C95.9089 181 94.7125 180.561 93.7495 179.686C92.632 178.673 92.0732 177.346 92.0732 175.708C92.0732 174.092 92.6353 172.772 93.7627 171.756C94.752 170.868 95.9418 170.419 97.3387 170.419C98.7257 170.419 99.9123 170.868 100.902 171.756C102.026 172.782 102.588 174.099 102.588 175.708Z" fill="white"/>
<path d="M114.4 173.15L112.967 173.763C112.113 172.704 111.025 172.173 109.707 172.173C108.57 172.173 107.662 172.498 106.989 173.15C106.311 173.802 105.973 174.647 105.973 175.683C105.973 176.751 106.311 177.609 106.989 178.255C107.662 178.904 108.576 179.231 109.733 179.231C111.064 179.231 112.155 178.684 112.997 177.603L114.335 178.491C113.158 180.139 111.61 180.968 109.697 180.968C108.103 180.968 106.814 180.473 105.828 179.484C104.846 178.501 104.353 177.236 104.353 175.693C104.353 174.084 104.915 172.773 106.032 171.757C107.002 170.876 108.192 170.437 109.605 170.437C111.587 170.437 113.187 171.341 114.4 173.15Z" fill="white"/>
<path d="M118.147 180.715H116.593V170.75H118.147V180.715Z" fill="white"/>
<path d="M129.487 180.715H120.882V170.751H129.188V172.523H122.437V174.66H127.134V176.429H122.437V178.943H129.487V180.715Z" fill="white"/>
<path d="M139.652 172.522H135.83V180.714H134.275V172.522H130.453V170.749H139.652V172.522Z" fill="white"/>
<path d="M149.953 180.715H141.351V170.751H149.654V172.523H142.902V174.66H147.603V176.429H142.902V178.943H149.953V180.715Z" fill="white"/>
<path d="M165.848 175.258V175.563C165.848 177.179 165.371 178.489 164.424 179.489C163.475 180.498 162.212 180.999 160.635 180.999C159.215 180.999 158.022 180.56 157.062 179.685C155.944 178.673 155.386 177.346 155.386 175.707C155.386 174.092 155.944 172.775 157.062 171.759C158.041 170.868 159.264 170.419 160.727 170.419C162.495 170.419 163.961 171.189 165.121 172.732L163.649 173.633C162.834 172.673 161.828 172.188 160.631 172.188C159.573 172.188 158.699 172.522 158.015 173.187C157.332 173.859 156.99 174.701 156.99 175.714C156.99 176.759 157.322 177.614 157.992 178.27C158.656 178.925 159.537 179.259 160.631 179.259C162.272 179.259 163.36 178.519 163.902 177.028H160.296V175.258H165.848Z" fill="white"/>
<path d="M176.698 180.715H168.097V170.751H176.399V172.523H169.651V174.66H174.345V176.429H169.651V178.943H176.698V180.715Z" fill="white"/>
<path d="M188.026 180.715H185.706L180.266 172.405V180.715H178.715V170.751H181.039L186.472 179.047V170.751H188.026V180.715Z" fill="white"/>
<path d="M199.364 180.715H190.762V170.751H199.065V172.523H192.314V174.66H197.01V176.429H192.314V178.943H199.364V180.715Z" fill="white"/>
<path d="M207.591 175.291C208.534 175.291 209.007 174.838 209.007 173.947C209.007 173 208.505 172.522 207.499 172.522H202.93V175.291H207.591ZM210.782 180.717H208.994L206.907 177.06H202.93V180.717H201.375V170.752H207.831C208.679 170.752 209.353 171.037 209.855 171.607C210.355 172.181 210.608 172.948 210.608 173.911C210.608 175.563 209.947 176.572 208.626 176.939L210.782 180.717Z" fill="white"/>
<path d="M219.012 176.808L217.119 172.397L215.21 176.808H219.012ZM222.434 180.714H220.718L219.805 178.58H214.418L213.501 180.714H211.788L216.143 170.752H218.076L222.434 180.714Z" fill="white"/>
<path d="M231.709 180.715H223.976V170.751H225.53V178.943H231.709V180.715Z" fill="white"/>
<path d="M242 180.715H233.398V170.751H241.704V172.523H234.953V174.66H239.65V176.429H234.953V178.943H242V180.715Z" fill="white"/>
</g>
</g>
<defs>
<clipPath id="clip0_34307_6165">
<rect width="234" height="97" fill="white" transform="translate(8 84)"/>
</clipPath>
</defs>
</svg>
