<svg width="250" height="250" viewBox="0 0 250 250" fill="none" xmlns="http://www.w3.org/2000/svg">
<g clip-path="url(#clip0_34307_6291)">
<path d="M90.5552 156.677C85.1264 156.677 81.008 154.995 78.0128 151.257C75.0176 147.52 73.8008 143.408 73.8008 137.334C73.8008 129.485 76.1408 124.066 80.9144 120.515C83.6197 118.448 86.9639 117.39 90.368 117.525C94.5388 117.423 98.6021 118.853 101.787 121.543L98.6048 125.467C96.3218 123.63 93.4875 122.61 90.5552 122.571C83.4416 122.571 80.8208 128.738 80.8208 137.708C80.8208 143.034 81.8504 146.772 83.6288 148.921C84.5702 149.894 85.7081 150.655 86.9669 151.154C88.2257 151.654 89.5765 151.88 90.9296 151.818C92.6894 151.839 94.4267 151.422 95.984 150.603V140.698H89.432L88.5896 135.466H102.442V153.5C98.8331 155.595 94.7299 156.691 90.5552 156.677Z" fill="white"/>
<path d="M119.759 156.864C112.177 156.864 107.403 151.164 107.403 142.287C107.403 133.41 112.177 127.616 119.665 127.616C127.153 127.616 132.114 133.503 132.114 142.287C132.114 151.071 127.34 156.864 119.759 156.864ZM119.665 132.195C115.827 132.195 114.143 135.092 114.143 141.913C114.143 148.734 116.202 152.379 119.852 152.379C123.503 152.379 125.468 149.482 125.468 142.474C125.468 135.466 123.222 132.195 119.665 132.195Z" fill="white"/>
<path d="M156.263 157.051C155.051 156.239 154.184 155.007 153.829 153.594C152.834 154.706 151.605 155.585 150.229 156.167C148.854 156.748 147.366 157.018 145.873 156.957C142.691 156.957 140.257 155.93 138.947 154.248C137.636 152.566 137.355 151.071 137.355 147.613V128.738L143.346 127.616V146.305C143.346 149.762 143.814 152.285 147.371 152.285C148.53 152.213 149.65 151.838 150.619 151.198C151.588 150.559 152.372 149.677 152.893 148.641V128.738L158.696 127.616V148.641C158.696 152.846 160.475 154.154 160.475 154.154L156.263 157.051Z" fill="white"/>
<path d="M183.313 156.21C183.062 155.517 182.905 154.794 182.845 154.061C181.955 154.958 180.888 155.662 179.712 156.129C178.536 156.595 177.276 156.814 176.012 156.77C168.805 156.77 164.499 151.164 164.499 142.474C164.499 133.784 169.366 127.803 176.105 127.803C177.241 127.766 178.372 127.971 179.421 128.406C180.471 128.842 181.415 129.496 182.189 130.326C182.189 130.326 182.002 128.177 182.002 125.747V115.562L187.993 116.497V146.492C187.993 152.005 188.367 154.808 188.929 156.21H183.313ZM182.002 134.905C181.37 134.191 180.592 133.621 179.72 133.234C178.848 132.847 177.902 132.652 176.948 132.662C173.017 132.662 171.238 135.746 171.238 142.474C171.238 149.202 172.455 151.725 177.041 151.725C178.031 151.733 179.007 151.488 179.875 151.014C180.743 150.539 181.475 149.851 182.002 149.015V134.905Z" fill="white"/>
<path d="M203.718 156.957C199.931 156.83 196.233 155.77 192.954 153.874L195.107 149.482C197.634 150.884 201.097 152.379 204.186 152.379C207.275 152.379 208.772 150.79 208.772 148.548C208.772 146.305 207.369 145.277 204.186 144.623L200.816 143.875C196.604 142.941 194.171 140.138 194.171 136.213C194.171 132.289 198.383 127.336 204.56 127.336C207.779 127.329 210.942 128.167 213.733 129.766L211.768 133.971C209.709 132.701 207.353 131.993 204.935 131.915C202.314 131.915 200.629 133.316 200.629 135.466C200.629 137.615 201.565 138.082 204.467 138.83L207.93 139.671C213.546 141.072 215.044 144.156 215.044 147.426C215.044 153.126 210.457 156.957 203.718 156.957Z" fill="white"/>
<path d="M225.339 143.876V144.343C225.339 148.174 226.743 152.285 232.172 152.285C234.783 152.274 237.292 151.271 239.192 149.482L241.532 153.22C238.745 155.605 235.187 156.899 231.516 156.864C223.56 156.864 218.6 151.164 218.6 142.287C218.6 137.335 219.723 134.064 222.063 131.354C223.118 130.117 224.442 129.137 225.934 128.489C227.427 127.841 229.048 127.543 230.674 127.617C233.513 127.543 236.269 128.583 238.349 130.513C240.783 132.662 242 136.12 242 142.567V143.876H225.339ZM230.674 132.195C227.211 132.195 225.339 134.905 225.339 139.39H235.728C235.728 134.905 233.669 132.195 230.674 132.195Z" fill="white"/>
<path d="M26.8136 156.21C26.5241 155.524 26.3349 154.8 26.252 154.061C25.3689 154.968 24.3035 155.678 23.1259 156.145C21.9483 156.612 20.6851 156.825 19.4192 156.77C12.3056 156.77 8 151.164 8 142.474C8 133.784 12.8672 127.803 19.6064 127.803C20.7282 127.767 21.8446 127.973 22.8787 128.409C23.9128 128.844 24.8401 129.499 25.5968 130.326C25.5968 130.326 25.5032 128.177 25.5032 125.747V115.562L31.4936 116.497V146.492C31.4936 152.005 31.7744 154.808 32.336 156.21H26.8136ZM25.5032 134.905C24.8571 134.183 24.0628 133.61 23.1744 133.223C22.286 132.836 21.3244 132.644 20.3552 132.662C16.5176 132.662 14.7392 135.746 14.7392 142.474C14.7392 149.202 15.956 151.725 20.5424 151.725C21.5305 151.724 22.5026 151.475 23.3694 151.002C24.2362 150.528 24.9699 149.845 25.5032 149.015V134.905Z" fill="white"/>
<path d="M43.3809 143.875V144.343C43.3809 148.174 44.8785 152.285 50.3073 152.285C52.9188 152.273 55.4281 151.271 57.3273 149.482L59.6673 153.22C56.8521 155.618 53.2594 156.913 49.5586 156.864C41.6962 156.864 36.7354 151.164 36.7354 142.287C36.7354 137.334 37.765 134.064 40.1986 131.354C41.2487 130.111 42.5722 129.127 44.0659 128.479C45.5596 127.831 47.183 127.535 48.8097 127.616C51.6475 127.552 54.3993 128.591 56.485 130.513C58.9186 132.662 60.1353 136.12 60.1353 142.567V143.875H43.3809ZM48.8097 132.195C45.3465 132.195 43.4746 134.905 43.4746 139.39H53.7706C53.7706 134.905 51.8049 132.195 48.8097 132.195Z" fill="white"/>
<path d="M68.1847 179.197H66.6871L63.9727 171.535L65.6575 171.348L66.9679 175.459C67.162 176.008 67.3184 176.57 67.4359 177.141C67.5599 176.541 67.7161 175.949 67.9039 175.366L69.2143 171.441H70.8991L68.1847 179.197Z" fill="white"/>
<path d="M78.2934 175.739C78.2934 176.861 78.6678 177.982 80.1654 177.982C80.8895 177.978 81.5878 177.713 82.131 177.234L82.7862 178.262C81.9864 178.888 80.9942 179.218 79.9782 179.197C77.8254 179.197 76.515 177.702 76.515 175.272C76.4336 174.164 76.7671 173.065 77.451 172.188C77.7533 171.877 78.1179 171.633 78.5212 171.472C78.9244 171.311 79.357 171.237 79.791 171.254C80.5473 171.235 81.283 171.502 81.8502 172.002C82.599 172.562 82.8798 173.497 82.8798 175.272V175.646L78.2934 175.739ZM79.791 172.562C78.855 172.562 78.2934 173.31 78.2934 174.525H81.195C81.195 173.31 80.6334 172.562 79.791 172.562Z" fill="white"/>
<path d="M93.5497 171.348H92.9881C92.5853 171.372 92.1948 171.495 91.8516 171.707C91.5085 171.919 91.2236 172.213 91.0225 172.562C91.0184 172.142 90.9225 171.727 90.7417 171.348L89.2441 171.815C89.4718 172.475 89.5672 173.174 89.5249 173.871V179.197H91.1161V174.057C91.1628 173.727 91.3341 173.427 91.5951 173.219C91.8561 173.01 92.187 172.909 92.5201 172.936H92.9881L93.5497 171.348Z" fill="white"/>
<path d="M104.221 179.103H98.792V177.982L102.723 172.656H99.1664V171.441H104.595V172.656L100.945 177.982H104.689L104.221 179.103Z" fill="white"/>
<path d="M112.364 175.739C112.364 176.861 112.832 177.982 114.329 177.982C115.021 177.956 115.683 177.692 116.201 177.234L116.856 178.262C116.057 178.888 115.064 179.218 114.048 179.197C111.896 179.197 110.585 177.702 110.585 175.272C110.504 174.164 110.837 173.065 111.521 172.188C111.824 171.877 112.188 171.633 112.591 171.472C112.995 171.311 113.427 171.237 113.861 171.254C114.647 171.229 115.414 171.496 116.014 172.002C116.669 172.562 116.95 173.497 116.95 175.272V175.646L112.364 175.739ZM113.861 172.562C112.925 172.562 112.457 173.31 112.457 174.525H115.265C115.265 173.31 114.704 172.562 113.861 172.562Z" fill="white"/>
<path d="M123.595 179.103V170.226C123.584 169.599 123.522 168.974 123.408 168.357L125.093 167.984C125.22 168.662 125.282 169.35 125.28 170.039V179.103H123.595ZM128.275 179.103L125.374 174.805L127.62 171.441H129.679L127.059 174.711L130.241 179.103H128.275Z" fill="white"/>
<path d="M137.167 175.739C137.167 176.861 137.542 177.982 139.039 177.982C139.764 177.978 140.462 177.713 141.005 177.234L141.66 178.262C140.86 178.888 139.868 179.218 138.852 179.197C136.699 179.197 135.389 177.702 135.389 175.272C135.308 174.164 135.641 173.065 136.325 172.189C136.904 171.617 137.675 171.282 138.488 171.247C139.302 171.213 140.099 171.482 140.724 172.002C141.379 172.562 141.754 173.497 141.754 175.272V175.646L137.167 175.739ZM138.665 172.562C137.729 172.562 137.167 173.31 137.167 174.525H140.069C140.069 173.31 139.507 172.562 138.665 172.562Z" fill="white"/>
<path d="M151.957 172.936H151.489C151.149 172.925 150.815 173.031 150.543 173.234C150.271 173.438 150.076 173.729 149.991 174.057V179.197H148.4V173.871C148.442 173.174 148.347 172.475 148.119 171.815L149.617 171.348C149.798 171.727 149.893 172.142 149.898 172.562C150.099 172.213 150.384 171.919 150.727 171.707C151.07 171.495 151.46 171.372 151.863 171.348H152.425L151.957 172.936Z" fill="white"/>
<path d="M159.164 170.32C159.021 170.333 158.877 170.316 158.741 170.27C158.605 170.224 158.481 170.15 158.375 170.054C158.269 169.957 158.185 169.839 158.127 169.708C158.07 169.577 158.04 169.435 158.041 169.292C158.041 168.994 158.159 168.709 158.37 168.499C158.581 168.289 158.866 168.17 159.164 168.17C159.462 168.17 159.748 168.289 159.958 168.499C160.169 168.709 160.287 168.994 160.287 169.292C160.264 169.573 160.135 169.834 159.927 170.025C159.719 170.215 159.447 170.321 159.164 170.32ZM158.322 179.103V171.628L160.007 171.347V179.103H158.322Z" fill="white"/>
<path d="M171.239 179.103V174.057C171.239 173.029 170.958 172.749 170.303 172.749C169.669 172.853 169.082 173.147 168.618 173.59V179.103H167.121V173.497C167.134 172.893 167.039 172.292 166.84 171.721L168.337 171.254C168.528 171.597 168.624 171.984 168.618 172.375C168.916 172.052 169.278 171.793 169.68 171.617C170.083 171.44 170.518 171.348 170.958 171.348C171.228 171.333 171.499 171.376 171.75 171.476C172.002 171.575 172.229 171.728 172.416 171.923C172.602 172.119 172.745 172.352 172.832 172.608C172.92 172.863 172.951 173.135 172.924 173.403V179.103H171.239Z" fill="white"/>
<path d="M185.465 172.749H184.904C185.214 173.114 185.381 173.579 185.372 174.057C185.372 175.366 184.249 176.393 182.47 176.393C180.692 176.393 181.441 176.861 181.441 177.141C181.441 177.421 181.534 177.421 183.313 177.421C183.623 177.382 183.937 177.408 184.237 177.497C184.536 177.586 184.814 177.737 185.051 177.939C185.289 178.141 185.482 178.391 185.618 178.672C185.754 178.953 185.829 179.259 185.84 179.57C185.84 181.252 184.529 182.093 182.47 182.093C180.411 182.093 179.101 181.439 179.101 180.038C179.109 179.755 179.14 179.474 179.194 179.197H180.785C180.728 179.378 180.697 179.567 180.692 179.757C180.692 180.505 181.253 180.879 182.377 180.879C183.5 180.879 184.155 180.411 184.155 179.664C184.155 178.916 183.5 178.636 182.002 178.636C180.505 178.636 179.569 178.169 179.569 177.421C179.569 176.674 180.13 176.393 180.973 176.113C180.477 176.023 180.032 175.754 179.721 175.358C179.411 174.962 179.257 174.466 179.288 173.964C179.288 172.375 180.505 171.441 182.283 171.441C184.061 171.441 183.968 171.815 184.623 171.815C185.142 171.795 185.638 171.597 186.027 171.254L186.776 172.282C186.43 172.634 185.959 172.836 185.465 172.843M182.283 172.656C182.107 172.642 181.931 172.666 181.765 172.727C181.6 172.787 181.45 172.883 181.325 173.008C181.2 173.132 181.104 173.282 181.044 173.447C180.983 173.612 180.958 173.789 180.973 173.964C180.939 174.143 180.95 174.328 181.004 174.502C181.058 174.676 181.153 174.834 181.282 174.963C181.412 175.092 181.57 175.187 181.744 175.241C181.919 175.295 182.104 175.306 182.283 175.272C182.631 175.272 182.964 175.134 183.21 174.889C183.455 174.644 183.593 174.311 183.593 173.964C183.593 173.617 183.455 173.284 183.21 173.039C182.964 172.794 182.631 172.656 182.283 172.656Z" fill="white"/>
<path d="M193.421 175.739C193.421 176.861 193.796 177.982 195.293 177.982C195.985 177.956 196.646 177.692 197.165 177.234L197.82 178.262C197.061 178.896 196.095 179.229 195.106 179.197C192.953 179.197 191.549 177.702 191.549 175.272C191.468 174.164 191.801 173.065 192.485 172.188C192.787 171.877 193.152 171.633 193.555 171.472C193.959 171.311 194.391 171.237 194.825 171.254C195.611 171.229 196.377 171.496 196.978 172.002C197.633 172.562 197.914 173.497 197.914 175.272V175.646L193.421 175.739ZM194.825 172.562C193.889 172.562 193.421 173.31 193.421 174.525H196.229C196.229 173.31 195.668 172.562 194.825 172.562Z" fill="white"/>
<path d="M208.304 179.103V174.057C208.304 173.029 208.024 172.749 207.368 172.749C206.735 172.853 206.147 173.147 205.684 173.59V179.103H204.092V173.497C204.106 172.893 204.011 172.292 203.812 171.721L205.309 171.254C205.499 171.597 205.596 171.984 205.59 172.375C205.888 172.052 206.249 171.793 206.652 171.617C207.055 171.44 207.49 171.348 207.93 171.348C208.2 171.333 208.47 171.376 208.722 171.476C208.973 171.575 209.2 171.728 209.387 171.923C209.574 172.119 209.716 172.352 209.804 172.608C209.892 172.863 209.923 173.135 209.896 173.403V179.103H208.304Z" fill="white"/>
<path fill-rule="evenodd" clip-rule="evenodd" d="M100.884 71.5703C112.116 64.1884 117.077 70.5425 117.077 70.5425C115.485 71.4233 114.085 72.6126 112.96 74.0407C111.835 75.4688 111.007 77.1069 110.525 78.8589C114.362 89.8851 103.786 111.47 81.228 113.152C90.4944 109.882 96.5784 102.687 96.1104 96.5195C90.5508 100.39 84.5881 103.648 78.3264 106.238C72.6168 114.46 67.656 123.618 64.848 133.523C66.5459 125.06 69.0211 116.77 72.2424 108.76C64.3175 111.887 56.2241 114.57 48 116.797C57.2963 113.197 66.2285 108.723 74.676 103.434C77.5203 97.739 81.04 92.4057 85.1592 87.549C75.7056 86.9884 63.8184 95.3048 61.104 105.864C64.9416 76.99 87.1248 68.3933 100.884 71.5703ZM89.3379 98.5557C92.8011 80.895 102.723 72.7655 113.299 70.9901C110.539 72.5441 108.343 74.9325 107.028 77.8114C107.028 77.8114 106.467 87.5295 89.3379 98.5557Z" fill="white"/>
</g>
<defs>
<clipPath id="clip0_34307_6291">
<rect width="234" height="114" fill="white" transform="translate(8 68)"/>
</clipPath>
</defs>
</svg>
