<svg width="250" height="250" viewBox="0 0 250 250" fill="none" xmlns="http://www.w3.org/2000/svg">
<g clip-path="url(#clip0_34307_6131)">
<path d="M75.1965 115.482H56.487C51.6384 115.59 47.7911 119.73 47.8438 124.785V144.143C47.7384 149.198 51.6384 153.392 56.487 153.5H75.1965C80.0451 153.392 83.8924 149.252 83.8397 144.143V124.785C83.8924 119.73 80.0451 115.536 75.1965 115.482ZM78.3586 127.366V141.724C78.4113 145.004 75.9343 147.692 72.7721 147.746H58.8586C55.6965 147.692 53.2194 145.004 53.2721 141.724V127.366C53.2194 124.086 55.6965 121.397 58.8586 121.343H72.7721C75.8816 121.397 78.4113 124.14 78.3586 127.366ZM114.882 115.482H96.0667C91.2181 115.59 87.3708 119.73 87.4235 124.785V144.143C87.3708 149.198 91.2181 153.392 96.0667 153.5H114.882C119.73 153.392 123.578 149.252 123.525 144.143V124.785C123.578 119.73 119.73 115.536 114.882 115.482ZM118.096 127.366V141.724C118.149 145.004 115.672 147.692 112.51 147.746H98.5965C95.487 147.639 93.01 144.95 93.0627 141.724V127.366C93.01 124.086 95.487 121.397 98.6492 121.343H112.563C115.672 121.451 118.096 124.14 118.096 127.366ZM193.936 115.482H175.173C170.325 115.59 166.478 119.73 166.53 124.785V144.143C166.478 149.198 170.325 153.392 175.173 153.446H193.936C198.784 153.339 202.632 149.198 202.579 144.143V124.785C202.632 119.73 198.784 115.536 193.936 115.482ZM197.098 127.366V141.724C197.15 145.004 194.673 147.692 191.511 147.746H177.598C174.436 147.692 171.959 145.004 172.011 141.724V127.366C171.959 124.086 174.436 121.397 177.598 121.343H191.511C194.673 121.397 197.15 124.14 197.098 127.366ZM233.568 115.482H214.806C209.957 115.59 206.11 119.73 206.163 124.785V144.143C206.11 149.198 209.957 153.392 214.806 153.446H233.568C238.417 153.339 242.264 149.198 242.211 144.143V124.785C242.317 119.73 238.417 115.536 233.568 115.482ZM236.783 127.366V141.724C236.836 145.004 234.359 147.692 231.196 147.746H217.283C214.173 147.692 211.644 145.004 211.696 141.724V127.366C211.644 124.086 214.121 121.397 217.283 121.343H231.196C234.306 121.397 236.836 124.14 236.783 127.366ZM35.3005 115.482H16.5384C15.4843 115.482 14.4303 115.697 13.4816 116.127V96.5H8.00054V144.143C7.94783 149.198 11.7951 153.392 16.6438 153.446H35.3005C40.1492 153.339 43.9965 149.198 43.9438 144.09V124.731C43.9965 119.73 40.1492 115.536 35.3005 115.482ZM38.4627 127.366V141.724C38.5154 145.004 36.0384 147.692 32.8762 147.746H18.9627C15.8532 147.692 13.3235 145.004 13.3762 141.724V127.366C13.3762 124.14 15.8532 121.451 18.9627 121.397H32.8762C35.9857 121.505 38.5154 124.14 38.4627 127.366ZM154.461 115.643H135.752C134.698 115.643 133.644 115.858 132.695 116.289V96.7151H127.214V153.554H132.695V153.07C132.695 150.758 132.59 127.742 132.59 127.581C132.59 124.355 135.067 121.666 138.176 121.612H152.09C155.199 121.666 157.729 124.355 157.676 127.635V153.608H163.21V125C163.315 119.945 159.468 115.697 154.619 115.59L154.461 115.643Z" fill="white"/>
</g>
<defs>
<clipPath id="clip0_34307_6131">
<rect width="234" height="57" fill="white" transform="translate(8 96.5)"/>
</clipPath>
</defs>
</svg>
