<svg width="250" height="250" viewBox="0 0 250 250" fill="none" xmlns="http://www.w3.org/2000/svg">
<g clip-path="url(#clip0_34307_6065)">
<path d="M144.159 115.617L134.319 71.491L106.838 107.02L144.159 115.617ZM179.398 113.016C179.398 142.953 155.042 167.226 125 167.226C94.958 167.226 70.605 142.953 70.6025 113.016C70.6025 83.081 94.9556 58.8133 125 58.8133C127.95 58.8133 130.843 59.0567 133.668 59.5044L129.032 65.5001C127.74 65.3931 126.441 65.3249 125.122 65.3249C99.8282 65.3249 79.3215 85.3026 79.3215 109.943C79.3215 134.58 99.8257 154.558 125.122 154.558C150.423 154.555 170.93 134.58 170.93 109.943C170.93 90.982 158.784 74.7979 141.661 68.335L140.008 60.9182C162.75 67.4127 179.398 88.2713 179.398 113.016Z" fill="white"/>
<path d="M134.628 174.599C129.823 174.599 126.016 178.438 126.016 183.238C126.016 188.21 129.833 191.836 134.628 191.836C139.427 191.836 143.241 188.001 143.241 183.238C143.241 178.112 139.565 174.599 134.628 174.599ZM89.0471 174.64C86.1952 174.64 84.2939 176.291 84.2939 178.655C84.294 180.336 85.3144 181.719 86.0408 182.548C84.3069 183.492 82.7908 184.888 82.7908 187.293C82.7908 189.86 84.8936 191.836 87.9096 191.836C89.7247 191.836 91.2538 191.208 92.5002 189.889L93.8408 191.471H97.4971C97.4971 191.471 94.7167 188.314 94.2877 187.78C94.6858 187.313 97.0096 183.643 97.0096 183.643H94.0846L92.6627 185.833L90.0221 182.913C92.1882 181.778 93.5564 180.178 93.5564 178.452C93.5564 176.142 91.5723 174.64 89.0471 174.64ZM115.778 174.64C111.119 174.64 107.206 178.209 107.206 183.197C107.206 188.213 110.746 191.754 115.778 191.754C118.573 191.754 120.904 190.663 122.441 188.551L122.522 188.429L120.125 186.442L120.044 186.604C119.136 188.247 117.714 189.078 115.778 189.078C112.493 189.078 110.375 186.516 110.375 183.197C110.375 179.888 112.725 177.357 115.778 177.357C117.608 177.357 119.261 178.339 120.044 179.709L120.125 179.872L122.563 177.925L122.441 177.803C120.804 175.795 118.367 174.64 115.778 174.64ZM34.2439 174.721L26.2002 191.43H29.3689L30.9533 187.942H37.2908L38.7939 191.43H42.2471L34.2439 174.721ZM56.5064 174.721V191.43H59.5127V181.818L70.4002 191.836V175.005H67.3939V184.779L56.5064 174.721ZM150.675 174.721L146.572 191.43H149.619L151.61 182.589L156.688 191.836L161.766 182.548L163.797 191.43H167.047L162.741 174.721L156.769 185.833L150.675 174.721ZM192.478 174.721L184.475 191.43H187.603L189.188 187.942H195.525L197.069 191.43H200.481L192.478 174.721ZM204.503 174.721V191.43H207.51V181.778L218.397 191.836V175.005H215.391V184.779L204.503 174.721ZM12.7939 175.005V191.43H17.4252C21.6388 191.43 23.8846 189.751 23.8846 186.726C23.8846 184.719 22.6252 183.311 20.7158 182.67C22.0028 182.096 22.9502 180.83 22.9502 179.263C22.9502 176.42 20.6931 175.005 16.7346 175.005H12.7939ZM46.2283 175.005V191.43H49.3564V175.005H46.2283ZM172.369 175.005V191.43H175.456V185.306C175.668 185.334 175.972 185.387 176.228 185.387C180.205 185.387 183.013 183.613 183.013 180.196C183.013 176.921 180.673 175.005 176.228 175.005H172.369ZM222.094 175.005L228.106 184.536V191.43H231.194V184.536L237.206 175.005H233.794L229.65 181.616L225.628 175.005H222.094ZM89.0064 176.871C90.0871 176.871 90.8346 177.558 90.8346 178.574C90.8346 179.706 89.6971 180.587 88.5596 181.169C87.9778 180.603 87.1377 179.701 87.1377 178.736C87.1377 177.584 87.9274 176.871 89.0064 176.871ZM134.628 177.317C137.929 177.317 140.031 179.669 140.031 183.238C140.031 186.39 137.839 189.118 134.628 189.118C131.414 189.118 129.225 186.576 129.225 183.238C129.225 180.157 131.412 177.317 134.628 177.317ZM15.8814 177.479H16.4096C18.6943 177.479 19.8221 178.105 19.8221 179.75C19.8221 181.426 18.6829 181.981 16.5314 181.981H15.8814V177.479ZM175.456 177.479H176.228C178.755 177.472 179.844 178.455 179.844 180.196C179.844 181.911 178.692 182.832 176.228 182.832C175.872 182.821 175.66 182.822 175.456 182.792V177.479ZM34.2439 180.561L36.1939 185.306H32.1314L34.2439 180.561ZM192.478 180.561L194.428 185.306H190.406L192.478 180.561ZM87.5846 184.333L90.7939 188.064C90.3373 188.692 89.3298 189.321 88.2346 189.321C86.7087 189.321 85.7564 188.366 85.7564 187.009C85.7564 185.854 86.6128 184.841 87.5033 184.373C87.5277 184.362 87.5651 184.344 87.5846 184.333ZM15.8814 184.454H17.2627C19.4288 184.45 20.6752 185.019 20.6752 186.766C20.6752 188.291 19.5426 188.943 17.2627 188.956H15.8814V184.454Z" fill="white"/>
</g>
<defs>
<clipPath id="clip0_34307_6065">
<rect width="234" height="146" fill="white" transform="translate(8 52)"/>
</clipPath>
</defs>
</svg>
