<svg width="250" height="250" viewBox="0 0 250 250" fill="none" xmlns="http://www.w3.org/2000/svg">
<path d="M236.336 93.9995L208.4 82.2056L216.073 49.6242L190.307 61.4326L178.166 32.3118L156.391 54.015L120.542 35.2373L114.127 70.5033L81.0198 77.6847L100.607 89.493L80.8993 99.3831L97.6431 100.839L28.7739 154.405L98.0624 117.611L23.718 174.166L102.839 132.933L18.3392 196.472L111.476 146.848L13.6641 217.693L122.026 158.343L48.5396 217.693L137.705 166.435L136.235 176.778L151.118 168.522L184.692 200.279L202.573 146.563L225.25 143.31L215.269 112.314L236.34 93.9995H236.336ZM211.953 112.792C210.724 142.573 185.589 165.698 155.793 164.469C126.026 163.24 102.887 138.105 104.116 108.324C105.345 78.5426 130.48 55.4175 160.261 56.6321C190.042 57.8611 213.167 82.996 211.938 112.777L211.953 112.792Z" fill="white"/>
<path d="M211.962 111.192C211.991 109.259 211.919 107.355 211.736 105.451C208.632 103.278 204.916 101.629 200.54 101.06C199.715 100.954 198.92 100.911 198.11 100.848C197.585 97.2818 196.79 93.7875 195.696 90.3847C196.25 90.4137 196.819 90.4426 197.387 90.4763C201.181 90.7462 204.926 91.18 208.613 91.7343C208.087 90.3558 207.519 89.0063 206.902 87.7002C202.766 87.0543 198.539 86.5772 194.269 86.2591H194.24C192.862 82.7985 191.199 79.4391 189.233 76.2629C191.989 75.6942 194.447 74.5712 196.443 72.6819C195.426 71.6456 194.361 70.6431 193.267 69.7129C191.527 71.3034 189.295 72.1565 186.717 72.4987C186.312 71.9444 185.936 71.3902 185.517 70.8648C181.858 66.0981 177.631 62.0206 172.971 58.7095C168.908 57.5383 164.652 56.8201 160.247 56.6562H159.514C167.712 59.8807 175.043 65.2884 180.933 72.5565C175.328 72.0167 168.835 70.1274 162.44 68.2573C160.55 67.6886 158.695 67.1488 156.892 66.6524C145.995 63.64 137.604 63.1581 131.309 63.6979C126.634 66.368 122.393 69.7081 118.72 73.6073C125.511 70.7732 139.223 65.9342 155.861 70.5371C157.63 71.0191 159.456 71.554 161.331 72.0939C168.676 74.2531 176.933 76.663 184.051 76.7401C186.013 79.6608 187.709 82.7647 189.117 85.9747C187.724 85.9169 186.331 85.8687 184.933 85.8397C150.279 85.2566 120.575 95.6286 104.073 112.16C104.164 115.443 104.535 118.667 105.21 121.78C109.856 115.11 116.749 109.071 125.622 104.078C142.394 94.6502 164.652 89.6907 188.288 90.0956C189.098 90.0956 189.922 90.1389 190.731 90.1727C191.932 93.5899 192.814 97.1276 193.382 100.752C178.157 101.398 168.276 110.898 156.945 121.029C146.771 130.143 134.345 139.209 116.194 144.665C117.905 146.761 119.775 148.742 121.785 150.554C138.915 143.662 150.279 132.929 159.9 124.34C170.797 114.585 180.176 105.23 193.922 104.767C194.284 108.574 194.284 112.44 193.922 116.353C192.081 137.488 179.834 155.413 163.139 164.257C167.394 163.852 171.549 162.951 175.487 161.587C176.822 160.478 178.138 159.321 179.386 158.078C190.341 147.301 197.132 132.615 198.51 116.739C198.858 112.768 198.858 108.825 198.539 104.945C199.229 105.022 199.918 105.08 200.607 105.201C205.297 105.967 209.017 108.333 211.924 111.182H211.953L211.962 111.192Z" fill="white"/>
</svg>
