<?xml version="1.0" encoding="UTF-8"?>
<svg id="Layer_TRD" xmlns="http://www.w3.org/2000/svg" version="1.1" viewBox="0 0 406.5 142.5">
  <!-- Generator: Adobe Illustrator 29.0.1, SVG Export Plug-In . SVG Version: 2.1.0 Build 192)  -->
  <defs>
    <style>
      .st0 {
        fill: #fff;
      }
    </style>
  </defs>
  <path class="st0" d="M10.2,21.1V3.9h4.4V.5H2v3.4h4.4v17.2h3.8ZM19.2,16.6c.1.8.4,1.6.8,2.4.8,1.4,2.2,2.3,3.8,2.5,1.3.2,2.5.2,3.8,0,1.3-.3,2.4-1,3.1-2.1.5-.6.8-1.4.9-2.1.4-1.6.5-3.2.5-4.8,0-2.3,0-4.7-.3-7-.1-.9-.4-1.8-.8-2.6-.8-1.5-2.3-2.5-3.9-2.7-1.2-.2-2.5-.1-3.8.1-1.3.3-2.4,1-3.1,2.1-.4.6-.7,1.3-.9,2.1-.3,1.6-.5,3.2-.5,4.8,0,.5,0,1.1,0,1.6,0,1.9,0,3.9.4,5.8M22.8,6.2c0-.5.2-1.1.4-1.6.1-.4.4-.8.7-1,.3-.3.8-.4,1.2-.4.5,0,1,0,1.5.2.4.2.8.5,1,.9.2.5.4.9.4,1.5.2,1.2.2,2.5.2,3.8,0,1.9,0,3.7-.1,5.6,0,.6-.2,1.3-.4,1.9-.1.4-.4.8-.7,1.1-.3.3-.7.4-1.1.5-.5,0-1.1,0-1.6-.2-.4-.2-.8-.5-1-.9-.2-.5-.4-.9-.5-1.4-.2-1.1-.2-2.3-.2-3.4v-1.7c0-1.5,0-3.1.1-4.6M44,21.1v-8.8L49.3.5h-4.1l-3.1,7.8-3.1-7.8h-4.2l5.4,11.9v8.8h3.9,0ZM52.4,16.6c.1.8.4,1.6.8,2.4.8,1.4,2.2,2.3,3.8,2.5,1.2.2,2.5.2,3.8,0,1.3-.3,2.4-1,3.1-2.1.4-.6.8-1.4.9-2.1.3-1.6.5-3.2.5-4.8,0-2.3,0-4.7-.3-7-.1-.9-.4-1.8-.8-2.6-.8-1.5-2.2-2.5-3.9-2.7-1.2-.2-2.5-.1-3.8.1-1.3.3-2.4,1-3.1,2.1-.4.6-.8,1.3-.9,2.1-.3,1.6-.5,3.2-.5,4.8,0,.5,0,1.1,0,1.6,0,1.9,0,3.9.4,5.8M56,6.2c0-.5.2-1.1.4-1.6.1-.4.4-.8.7-1,.3-.3.8-.4,1.2-.4.5,0,1,0,1.5.2.4.2.8.5,1,.9.2.5.4.9.5,1.5.2,1.2.2,2.5.2,3.8,0,1.9,0,3.7-.1,5.6,0,.6-.2,1.3-.4,1.9-.1.4-.4.8-.7,1.1-.3.3-.7.4-1.1.5-.5,0-1.1,0-1.6-.2-.4-.2-.8-.5-1-.9-.2-.5-.4-.9-.5-1.4-.2-1.1-.2-2.3-.2-3.4v-1.7c0-1.5,0-3.1.2-4.6M77.6,21.1V3.9h4.4V.5h-12.7v3.4h4.4v17.2h3.8ZM86.9,21.1l1-5.2h4.4l1,5.2h4.1L92.8.5h-5.1l-4.6,20.6h3.9ZM90.2,4.2l1.6,8.6h-3.2s1.6-8.6,1.6-8.6ZM115.5,21.1v-9.1c.9,0,1.8,0,2.7,0,.4,0,.8.1,1.2.3.5.2.9.7,1.1,1.2.1.4.2.9.2,1.3,0,1.4,0,2.8.1,4.3,0,.7.1,1.3.3,2h4.6c-.5-.5-.8-1.1-.9-1.7,0-.5-.2-1-.2-1.6,0-1.4-.1-2.7-.2-4.1,0-.5-.1-1-.3-1.4-.2-.6-.7-1.1-1.2-1.4-.4-.2-.8-.4-1.2-.5,1.1-.1,1.9-.8,2.4-1.8.4-.8.5-1.8.5-2.7,0-.9-.1-1.8-.4-2.6-.4-1.1-1.2-2-2.4-2.4-.9-.3-1.9-.5-3-.5h-7v20.6h3.7ZM115.5,3.4h1.9c.6,0,1.1,0,1.6.2.3,0,.7.2,1,.5.3.3.5.6.6,1.1.1.5.1,1,0,1.5,0,.4,0,.8-.2,1.2-.2.6-.7,1-1.2,1.2-.4.1-.9.2-1.4.2h-2.3V3.4h0ZM134.4,21.1l1-5.2h4.4l1,5.2h4.1l-4.7-20.6h-5.1l-4.6,20.6h3.9ZM137.6,4.2l1.6,8.6h-3.2l1.6-8.6h0ZM157.1,16.4h0c0,.4-.2.8-.3,1.1-.2.5-.7.9-1.3.9-.4,0-.8,0-1.2,0-.4-.1-.8-.4-1.1-.9-.2-.3-.3-.7-.4-1.1-.1-.9-.2-1.7-.2-2.6,0-2.4,0-4.9,0-7.3,0-.6.1-1.2.3-1.9,0-.3.2-.7.4-1,.3-.3.6-.5,1.1-.6.4,0,.9,0,1.3.1.4.2.7.5.9.8.2.4.4.9.4,1.4,0,.5,0,1,0,1.4h3.7c0-1.2-.1-2.4-.5-3.5-.3-1-.9-1.9-1.8-2.4-.8-.5-1.7-.8-2.7-.9-1.2-.1-2.4,0-3.5.3-1.6.6-2.8,2-3.2,3.6-.3,1.2-.4,2.5-.5,3.8-.1,2.6,0,5.2.1,7.8,0,1.1.4,2.1.8,3.1.7,1.5,2.1,2.6,3.7,2.8,1.3.2,2.6.1,3.9-.2,1.5-.4,2.7-1.5,3.2-3,.4-1.2.6-2.4.6-3.7,0-.2,0-.3,0-.5,0-.1,0-.2,0-.3h-3.7c0,.9,0,1.7-.1,2.6M169.4.5h-3.8v20.6h3.8V.5ZM177.7,21.1V6.7c-.1,0,5.3,14.5,5.3,14.5h3.9V.5h-3.6v14.4c.1,0-5.3-14.4-5.3-14.4h-3.9v20.6h3.6ZM204.9,21.1v-11.2h-6.3v3.3h2.6c0,.9,0,1.8-.1,2.6,0,.5-.2,1-.5,1.5-.3.6-.9,1-1.5,1.1-.5.1-1,0-1.5,0-.4-.1-.8-.5-1.1-.9-.3-.5-.4-.9-.5-1.4-.2-1.2-.3-2.4-.3-3.5,0-2,0-3.9.1-5.9,0-.6.2-1.3.4-1.9.1-.4.4-.8.7-1.1.3-.3.7-.4,1.1-.5.6-.1,1.2,0,1.8.2.5.2.9.7,1.2,1.2.3.7.4,1.3.4,2.1v.4h3.6c0-1,0-2-.3-2.9-.2-1.1-.8-2.1-1.7-2.8-.8-.6-1.8-1-2.8-1.1-1.5-.3-3.1-.2-4.6.3-1.5.5-2.6,1.8-3.1,3.3-.4,1.2-.6,2.5-.6,3.7-.1,2.7,0,5.4.2,8.1.1,1.2.4,2.3.9,3.3.5,1,1.3,1.8,2.3,2.2.8.3,1.7.4,2.6.4.8,0,1.6-.1,2.3-.5.7-.3,1.3-.9,1.6-1.6.1-.2.2-.4.3-.7l.3,2.3h2.6,0ZM224.5,21.1c1.1,0,2.2,0,3.3-.2.7-.1,1.4-.4,2-.8.5-.4.9-.9,1.2-1.5.6-1.3,1-2.6,1.1-4,.2-2.7.2-5.4,0-8.1,0-1.1-.4-2.2-.8-3.2-.3-.7-.8-1.3-1.5-1.8-.7-.5-1.4-.7-2.2-.9-.7-.1-1.5-.2-2.2-.2h-6.2v20.6h5.3ZM222.9,3.5c.9,0,1.8,0,2.7,0,.3,0,.7,0,1,.2.2,0,.5.3.6.5.4.5.6,1,.8,1.6.2,1,.3,2.1.3,3.1,0,1.8,0,3.6-.1,5.5,0,.8-.3,1.5-.5,2.2-.1.2-.2.5-.4.7-.2.3-.5.5-.9.5-.4.1-.8.1-1.1.1-.8,0-1.5,0-2.3,0V3.5h0ZM247.6,21.1v-3.5h-6.9v-5.7h6.3v-3.3h-6.3V3.9h6.8V.5h-10.6v20.6h10.7ZM261.8,21.1l4.4-20.6h-4l-2.8,16.5-3.1-16.5h-4.1l4.6,20.6h5ZM281.5,21.1v-3.5h-6.9v-5.7h6.3v-3.3h-6.3V3.9h6.8V.5h-10.6v20.6h10.7ZM297.1,21.1v-3.5h-6.9V.5h-3.8v20.6h10.8,0ZM301.8,16.6c.1.8.4,1.6.8,2.4.8,1.4,2.2,2.3,3.8,2.5,1.2.2,2.5.2,3.8,0,1.3-.3,2.4-1,3.1-2.1.5-.6.8-1.4.9-2.1.3-1.6.5-3.2.5-4.8.1-2.3,0-4.7-.3-7-.1-.9-.4-1.8-.8-2.6-.8-1.5-2.3-2.5-3.9-2.7-1.2-.2-2.5-.1-3.8.1-1.3.3-2.4,1-3.1,2.1-.4.6-.8,1.3-.9,2.1-.4,1.6-.5,3.2-.5,4.8,0,.5,0,1.1,0,1.6,0,1.9,0,3.9.4,5.8M305.4,6.2c0-.5.2-1.1.4-1.6.1-.4.4-.8.7-1,.3-.3.7-.4,1.2-.4.5,0,1,0,1.5.2.4.2.8.5,1,.9.2.5.4.9.5,1.5.2,1.2.2,2.5.2,3.8,0,1.9,0,3.7-.1,5.6,0,.6-.2,1.3-.4,1.9-.1.4-.4.8-.7,1.1-.3.3-.7.4-1.1.5-.5,0-1.1,0-1.6-.2-.4-.2-.8-.5-1-.9-.2-.5-.4-.9-.5-1.4-.2-1.1-.2-2.3-.2-3.4v-1.7c0-1.5,0-3.1.2-4.6M323.3,21.1v-8.8c1.1,0,2.2,0,3.3,0,1,0,2-.3,3-.8,1-.6,1.7-1.5,2-2.6.3-1.2.4-2.5.3-3.7,0-.9-.3-1.8-.7-2.6-.5-.9-1.3-1.5-2.3-1.8-.9-.3-1.8-.4-2.7-.4h-6.7v20.6h3.8ZM323.2,3.4h1.7c.5,0,1,0,1.5.2.4,0,.8.3,1,.5.3.3.5.7.5,1,.1.6.2,1.2.1,1.8,0,.4-.1.9-.3,1.3-.2.5-.7.9-1.2,1.1-.5.2-1,.2-1.5.2h-1.9V3.4h0ZM340.4,21.1V2.8c0,0,3.8,18.3,3.8,18.3h2.4l3.8-18.3v18.3c0,0,3.6,0,3.6,0V.5h-5.8l-2.8,13.4-2.8-13.4h-5.8v20.6h3.7ZM369.4,21.1v-3.5h-6.9v-5.7h6.3v-3.3h-6.3V3.9h6.8V.5h-10.6v20.6h10.7,0ZM377.8,21.1V6.7c-.1,0,5.3,14.5,5.3,14.5h3.9V.5h-3.6v14.4c.1,0-5.3-14.4-5.3-14.4h-3.9v20.6h3.6ZM400.1,21.1V3.9h4.4V.5h-12.7v3.4h4.4v17.2h3.8Z"/>
  <path class="st0" d="M386.7,87c0,.9-.2,1.7-.8,2.4-.6.6-1.4,1-2.3,1h-85.1v-38.1h85.5c.7,0,1.4.2,2,.7.5.5.8,1.2.8,1.9v32.2h0ZM406.5,95.1v-48c-1.9-9.8-9.9-17.1-19.8-18.1h-110.7v84.4h112.8c9.9-.2,17.8-8.3,17.7-18.2M241.3,87.8h-56.8c-2.3,0-4.4-1.5-4.4-3.2s2-3.6,4.4-3.6h62.3c12.6,0,22.8-10.2,22.8-22.8v-6.5c0-12.6-10.2-22.8-22.8-22.8h-88.4c-12.6,0-22.8,10.2-22.8,22.8v90.7h23.1s.2-87.5.2-88.4c0-1.8,1.8-3.2,4.1-3.2h83.5c2.3,0,4,1.5,4,3.2s-1.7,3.5-4,3.5h-62.6c-12.3,0-22.8,10.2-22.8,22.8v6.4c0,12.6,10.5,22.8,22.8,22.8h47.1c8.8,0,12.9,6.5,12.9,6.5l22.8,26.3h28.9s-41.8-48.2-41.8-48.2c0,0-4-6.4-12.6-6.4M132.8,29H0v24.7h54.9v60.7h23.1v-60.7h54.9v-24.7h0Z"/>
</svg>