<svg width="250" height="250" viewBox="0 0 250 250" fill="none" xmlns="http://www.w3.org/2000/svg">
<g clip-path="url(#clip0_34307_6073)">
<path d="M164.588 123.718C162.362 123.718 160.187 124.394 158.337 125.658C156.487 126.923 155.046 128.72 154.195 130.823C153.345 132.926 153.123 135.24 153.559 137.471C153.994 139.703 155.067 141.752 156.642 143.36C158.217 144.968 160.223 146.062 162.406 146.503C164.589 146.945 166.851 146.714 168.905 145.84C170.96 144.967 172.715 143.489 173.949 141.595C175.182 139.701 175.838 137.476 175.834 135.2C175.83 132.153 174.643 129.232 172.534 127.079C170.425 124.926 167.567 123.718 164.588 123.718ZM164.588 142.173C160.955 142.173 158.013 139.06 158.013 135.217C158.013 131.374 160.955 128.264 164.588 128.264C168.22 128.264 171.162 131.377 171.162 135.217C171.162 139.056 168.22 142.173 164.588 142.173ZM204.212 123.718C201.326 123.718 198.767 124.856 197.178 126.619V124.171H195.669C195.271 124.151 194.874 124.217 194.503 124.366C194.132 124.514 193.796 124.741 193.517 125.032C193.233 125.322 193.013 125.67 192.869 126.052C192.726 126.435 192.663 126.845 192.684 127.254V153.736H197.403V144.071C198.813 145.699 201.365 146.718 204.202 146.718C210.621 146.718 215.184 141.569 215.184 135.217C215.184 128.865 210.621 123.718 204.202 123.718H204.212ZM203.948 142.173C200.315 142.173 197.373 139.06 197.373 135.217C197.373 131.374 200.315 128.264 203.948 128.264C207.58 128.264 210.522 131.377 210.522 135.217C210.522 139.056 207.57 142.173 203.938 142.173H203.948ZM136.616 135.217C136.587 136.696 137.03 138.146 137.877 139.345C138.725 140.545 139.931 141.43 141.313 141.867C142.696 142.304 144.18 142.269 145.541 141.768C146.903 141.266 148.068 140.325 148.86 139.087L152.542 141.609C150.373 144.919 147.361 146.718 143.191 146.718C140.242 146.667 137.431 145.432 135.363 143.281C133.295 141.13 132.137 138.235 132.137 135.218C132.137 132.202 133.295 129.307 135.363 127.156C137.431 125.004 140.242 123.77 143.191 123.718C147.404 123.718 150.455 125.566 152.611 128.936L148.817 131.448C148.227 130.479 147.406 129.68 146.431 129.123C145.456 128.567 144.36 128.272 143.243 128.267C141.462 128.289 139.763 129.034 138.518 130.337C137.274 131.64 136.586 133.395 136.606 135.217H136.616ZM188.128 123.715C189.347 123.722 190.536 124.106 191.539 124.816L189.709 129.327C188.985 128.71 188.077 128.362 187.134 128.341C186.591 128.324 186.051 128.42 185.546 128.624C185.042 128.828 184.583 129.135 184.198 129.527C183.363 130.378 182.927 131.526 182.927 133.207V146.114H178.208V127.241C178.187 126.831 178.25 126.422 178.393 126.039C178.537 125.656 178.757 125.308 179.041 125.019C179.319 124.731 179.653 124.508 180.022 124.362C180.391 124.215 180.785 124.151 181.18 124.171H182.689V126.636C183.994 124.61 185.892 123.715 188.128 123.715Z" fill="white"/>
<path fill-rule="evenodd" clip-rule="evenodd" d="M124.036 144.881C126.482 139.215 132.915 124.387 132.915 124.387H127.721L121.86 138.57L115.989 124.387H110.553L119.069 144.091C117.99 147.826 115.077 149.177 112.921 149.177V153.752C115.856 153.627 118.541 152.648 120.559 150.622C122.104 149.065 122.863 147.583 124.036 144.881ZM62.8722 141.612C64.1056 139.718 64.7618 137.492 64.7579 135.217C64.7527 132.17 63.5654 129.25 61.4569 127.097C59.3483 124.944 56.4907 123.735 53.5113 123.735C51.2861 123.735 49.1109 124.41 47.2609 125.675C45.411 126.94 43.9695 128.737 43.1189 130.84C42.2682 132.943 42.0467 135.257 42.4822 137.488C42.9178 139.72 43.9909 141.769 45.5657 143.377C47.1406 144.985 49.1464 146.079 51.3293 146.52C53.5123 146.962 55.7742 146.731 57.8289 145.857C59.8836 144.984 61.6387 143.506 62.8722 141.612ZM53.5113 128.264C57.1435 128.264 60.0856 131.377 60.0856 135.217C60.0856 139.06 57.1435 142.173 53.5113 142.173C49.8791 142.173 46.937 139.056 46.937 135.217C46.937 131.377 49.8791 128.264 53.5113 128.264ZM111.244 136.905C111.325 136.346 111.366 135.782 111.366 135.217C111.366 128.649 106.538 123.749 100.113 123.749C93.6868 123.749 88.8659 128.659 88.8659 135.23C88.8659 141.802 93.6868 146.732 100.113 146.732C104.21 146.732 108.021 144.699 110.127 141.349L106.165 139.09C105.505 140.073 104.616 140.874 103.579 141.418C102.541 141.963 101.388 142.235 100.221 142.21C96.9723 142.21 94.3109 140.096 93.6703 136.905H111.244ZM100.089 128.237C103.091 128.237 105.392 130.01 106.31 132.897H93.8453C94.2483 131.531 95.0761 130.337 96.2031 129.496C97.33 128.655 98.6945 128.213 100.089 128.237ZM27.2436 124.676C28.4784 124.036 29.8449 123.706 31.2293 123.715C35.9611 123.715 39.8047 127.447 39.8047 132.225V146.114H35.0828V133.022C35.0828 130.32 33.3723 128.294 30.7208 128.294C28.0693 128.294 26.3589 130.32 26.3589 133.022V146.114H21.6403V133.022C21.6403 130.32 19.7285 128.294 17.0769 128.294C14.4254 128.294 12.7183 130.32 12.7183 133.022V146.127H7.99973V127.254C7.9782 126.845 8.04116 126.435 8.18453 126.052C8.32789 125.67 8.54844 125.322 8.83183 125.032C9.10994 124.744 9.44425 124.52 9.81294 124.373C10.1816 124.227 10.5764 124.161 10.9715 124.181H12.4806V126.646C13.0852 125.742 13.8969 125.004 14.8448 124.495C15.7928 123.985 16.8482 123.721 17.919 123.725C19.1764 123.735 20.4097 124.078 21.4984 124.722C22.5872 125.365 23.4939 126.287 24.13 127.396C24.9413 126.249 26.0088 125.316 27.2436 124.676ZM74.5786 124.474C75.6797 123.967 76.8742 123.709 78.0815 123.715C82.7605 123.715 86.5974 127.517 86.5974 132.225V146.114H81.8854V133.305C81.8854 130.435 79.7523 128.277 76.797 128.277C73.8417 128.277 71.9365 130.435 71.9365 133.305V146.114H67.2179V127.241C67.1964 126.831 67.2594 126.422 67.4027 126.039C67.5461 125.656 67.7666 125.308 68.05 125.019C68.3284 124.731 68.6629 124.508 69.0315 124.362C69.4002 124.215 69.7949 124.151 70.1897 124.171H71.6987V126.65C72.4954 125.722 73.4774 124.98 74.5786 124.474ZM230.536 107.979C233.592 111.105 237.53 113.172 241.795 113.888C241.93 113.905 242 113.925 242 113.953C242 113.98 241.93 114.007 241.795 114.03C237.531 114.748 233.595 116.814 230.54 119.939C227.484 123.063 225.463 127.088 224.76 131.448C224.74 131.587 224.714 131.657 224.687 131.657C224.661 131.657 224.634 131.587 224.611 131.448C223.906 127.091 221.884 123.069 218.83 119.948C215.775 116.826 211.841 114.761 207.58 114.044C207.444 114.02 207.375 113.993 207.375 113.966C207.375 113.939 207.444 113.912 207.58 113.888C211.844 113.171 215.781 111.104 218.836 107.978C221.892 104.852 223.912 100.825 224.611 96.4636C224.634 96.3252 224.661 96.2543 224.687 96.2543C224.714 96.2543 224.74 96.3252 224.76 96.4636C225.46 100.826 227.48 104.853 230.536 107.979ZM226.782 116.089C227.824 115.023 229.152 114.297 230.598 114.003C230.631 113.996 230.668 113.976 230.668 113.959C230.668 113.942 230.645 113.915 230.598 113.915C229.151 113.624 227.821 112.898 226.778 111.832C225.735 110.765 225.026 109.405 224.741 107.925C224.731 107.881 224.714 107.85 224.698 107.854C224.681 107.857 224.655 107.881 224.655 107.925C224.369 109.404 223.659 110.763 222.617 111.829C221.575 112.896 220.247 113.622 218.8 113.915C218.757 113.925 218.728 113.942 218.731 113.959C218.734 113.976 218.757 114.003 218.8 114.003C220.247 114.297 221.575 115.024 222.618 116.09C223.66 117.156 224.37 118.515 224.658 119.994C224.665 120.038 224.685 120.068 224.701 120.065C224.718 120.061 224.744 120.038 224.744 119.994C225.03 118.515 225.739 117.156 226.782 116.089Z" fill="white"/>
</g>
<defs>
<clipPath id="clip0_34307_6073">
<rect width="234" height="57.4914" fill="white" transform="translate(8 96.2543)"/>
</clipPath>
</defs>
</svg>
